<svg width="27" height="28" viewBox="0 0 27 28" fill="none" xmlns="http://www.w3.org/2000/svg">
<path d="M26.598 5.75976C25.6586 6.19143 24.6495 6.48309 23.5886 6.61493C24.6832 5.93568 25.5021 4.86664 25.8926 3.60726C24.8642 4.24075 23.7386 4.68665 22.5648 4.92559C21.7755 4.0516 20.73 3.47231 19.5907 3.27765C18.4514 3.08299 17.2819 3.28385 16.264 3.84906C15.246 4.41426 14.4365 5.31218 13.961 6.40341C13.4856 7.49465 13.3708 8.71814 13.6346 9.88393C11.5507 9.77542 9.51217 9.21374 7.65119 8.23532C5.79021 7.2569 4.14841 5.88362 2.83234 4.20459C2.38234 5.00959 2.12359 5.94293 2.12359 6.93693C2.12308 7.83176 2.33557 8.71288 2.7422 9.50212C3.14883 10.2914 3.73702 10.9643 4.45459 11.4613C3.6224 11.4338 2.80857 11.2006 2.08084 10.7811V10.8511C2.08075 12.1061 2.49937 13.3225 3.26567 14.2939C4.03196 15.2653 5.09873 15.9318 6.28496 16.1804C5.51297 16.3971 4.70359 16.429 3.91796 16.2738C4.25265 17.3536 4.90458 18.298 5.7825 18.9745C6.66042 19.6511 7.72037 20.026 8.81396 20.0468C6.95752 21.5581 4.66483 22.3779 2.30471 22.3743C1.88664 22.3744 1.46892 22.3491 1.05371 22.2984C3.44937 23.8958 6.23809 24.7436 9.08621 24.7403C18.7275 24.7403 23.9981 16.4593 23.9981 9.27726C23.9981 9.04393 23.9925 8.80826 23.9823 8.57493C25.0075 7.80606 25.8925 6.85397 26.5957 5.76326L26.598 5.75976Z" fill="#221FBC" fill-opacity="0.85"/>
</svg>
