<svg width="27" height="28" viewBox="0 0 27 28" fill="none" xmlns="http://www.w3.org/2000/svg">
<path d="M26.5983 5.75976C25.659 6.19143 24.6498 6.48309 23.589 6.61493C24.6836 5.93568 25.5025 4.86664 25.893 3.60726C24.8645 4.24075 23.739 4.68665 22.5652 4.92559C21.7759 4.0516 20.7304 3.47231 19.5911 3.27765C18.4517 3.08299 17.2823 3.28385 16.2643 3.84906C15.2464 4.41426 14.4368 5.31218 13.9614 6.40341C13.4859 7.49465 13.3712 8.71814 13.635 9.88393C11.5511 9.77542 9.51253 9.21374 7.65155 8.23532C5.79058 7.2569 4.14877 5.88362 2.8327 4.20459C2.3827 5.00959 2.12395 5.94293 2.12395 6.93693C2.12345 7.83176 2.33594 8.71288 2.74257 9.50212C3.14919 10.2914 3.73738 10.9643 4.45495 11.4613C3.62276 11.4338 2.80893 11.2006 2.0812 10.7811V10.8511C2.08112 12.1061 2.49974 13.3225 3.26603 14.2939C4.03233 15.2653 5.0991 15.9318 6.28533 16.1804C5.51333 16.3971 4.70396 16.429 3.91833 16.2738C4.25301 17.3536 4.90495 18.298 5.78287 18.9745C6.66078 19.6511 7.72073 20.026 8.81433 20.0468C6.95789 21.5581 4.6652 22.3779 2.30508 22.3743C1.88701 22.3744 1.46929 22.3491 1.05408 22.2984C3.44974 23.8958 6.23846 24.7436 9.08658 24.7403C18.7278 24.7403 23.9985 16.4593 23.9985 9.27726C23.9985 9.04393 23.9928 8.80826 23.9827 8.57493C25.0079 7.80606 25.8929 6.85397 26.5961 5.76326L26.5983 5.75976Z" fill="#221FBC" fill-opacity="0.85"/>
</svg>
