<svg width="27" height="28" viewBox="0 0 27 28" fill="none" xmlns="http://www.w3.org/2000/svg">
<path d="M26.5984 5.75976C25.6591 6.19143 24.65 6.48309 23.5891 6.61493C24.6837 5.93568 25.5026 4.86664 25.8931 3.60726C24.8647 4.24075 23.7391 4.68665 22.5653 4.92559C21.776 4.0516 20.7305 3.47231 19.5912 3.27765C18.4519 3.08299 17.2824 3.28385 16.2645 3.84906C15.2465 4.41426 14.4369 5.31218 13.9615 6.40341C13.486 7.49465 13.3713 8.71814 13.6351 9.88393C11.5512 9.77542 9.51266 9.21374 7.65168 8.23532C5.7907 7.2569 4.1489 5.88362 2.83282 4.20459C2.38282 5.00959 2.12407 5.94293 2.12407 6.93693C2.12357 7.83176 2.33606 8.71288 2.74269 9.50212C3.14931 10.2914 3.73751 10.9643 4.45507 11.4613C3.62288 11.4338 2.80906 11.2006 2.08132 10.7811V10.8511C2.08124 12.1061 2.49986 13.3225 3.26616 14.2939C4.03245 15.2653 5.09922 15.9318 6.28545 16.1804C5.51346 16.3971 4.70408 16.429 3.91845 16.2738C4.25313 17.3536 4.90507 18.298 5.78299 18.9745C6.66091 19.6511 7.72086 20.026 8.81445 20.0468C6.95801 21.5581 4.66532 22.3779 2.3052 22.3743C1.88713 22.3744 1.46941 22.3491 1.0542 22.2984C3.44986 23.8958 6.23858 24.7436 9.0867 24.7403C18.7279 24.7403 23.9986 16.4593 23.9986 9.27726C23.9986 9.04393 23.993 8.80826 23.9828 8.57493C25.008 7.80606 25.893 6.85397 26.5962 5.76326L26.5984 5.75976Z" fill="#221FBC" fill-opacity="0.85"/>
</svg>
