<svg width="27" height="28" viewBox="0 0 27 28" fill="none" xmlns="http://www.w3.org/2000/svg">
<path d="M26.5984 5.75976C25.659 6.19143 24.6499 6.48309 23.589 6.61493C24.6836 5.93568 25.5026 4.86664 25.893 3.60726C24.8646 4.24075 23.739 4.68665 22.5653 4.92559C21.7759 4.0516 20.7305 3.47231 19.5911 3.27765C18.4518 3.08299 17.2824 3.28385 16.2644 3.84906C15.2464 4.41426 14.4369 5.31218 13.9614 6.40341C13.486 7.49465 13.3712 8.71814 13.635 9.88393C11.5512 9.77542 9.51259 9.21374 7.65162 8.23532C5.79064 7.2569 4.14883 5.88362 2.83276 4.20459C2.38276 5.00959 2.12401 5.94293 2.12401 6.93693C2.12351 7.83176 2.336 8.71288 2.74263 9.50212C3.14925 10.2914 3.73744 10.9643 4.45501 11.4613C3.62282 11.4338 2.809 11.2006 2.08126 10.7811V10.8511C2.08118 12.1061 2.4998 13.3225 3.26609 14.2939C4.03239 15.2653 5.09916 15.9318 6.28539 16.1804C5.51339 16.3971 4.70402 16.429 3.91839 16.2738C4.25307 17.3536 4.90501 18.298 5.78293 18.9745C6.66084 19.6511 7.72079 20.026 8.81439 20.0468C6.95795 21.5581 4.66526 22.3779 2.30514 22.3743C1.88707 22.3744 1.46935 22.3491 1.05414 22.2984C3.4498 23.8958 6.23852 24.7436 9.08664 24.7403C18.7279 24.7403 23.9985 16.4593 23.9985 9.27726C23.9985 9.04393 23.9929 8.80826 23.9828 8.57493C25.008 7.80606 25.8929 6.85397 26.5961 5.76326L26.5984 5.75976Z" fill="#221FBC" fill-opacity="0.85"/>
</svg>
