<svg width="24" height="20" viewBox="0 0 24 20" fill="none" xmlns="http://www.w3.org/2000/svg">
<path d="M12 5.99423C9.33983 5.99423 7.19296 7.7833 7.19296 10.0001C7.19296 12.2169 9.33983 14.0059 12 14.0059C14.6601 14.0059 16.807 12.2169 16.807 10.0001C16.807 7.7833 14.6601 5.99423 12 5.99423ZM12 12.6036C10.2797 12.6036 8.87577 11.4337 8.87577 10.0001C8.87577 8.5665 10.2797 7.39658 12 7.39658C13.7203 7.39658 15.1242 8.5665 15.1242 10.0001C15.1242 11.4337 13.7203 12.6036 12 12.6036ZM17.0039 4.89658C16.3828 4.89658 15.8812 5.31455 15.8812 5.83212C15.8812 6.3497 16.3828 6.76767 17.0039 6.76767C17.625 6.76767 18.1266 6.35165 18.1266 5.83212C18.1267 5.70922 18.0978 5.5875 18.0415 5.47392C17.9851 5.36035 17.9024 5.25715 17.7981 5.17025C17.6939 5.08334 17.57 5.01444 17.4337 4.96748C17.2974 4.92052 17.1514 4.89642 17.0039 4.89658ZM21.3703 10.0001C21.3703 8.92197 21.382 7.85361 21.3094 6.77744C21.2367 5.52744 20.8945 4.41806 19.7976 3.504C18.6984 2.58798 17.3695 2.30478 15.8695 2.24423C14.5758 2.18369 13.2937 2.19345 12.0023 2.19345C10.7086 2.19345 9.42655 2.18369 8.13515 2.24423C6.63515 2.30478 5.3039 2.58994 4.20702 3.504C3.1078 4.42001 2.76796 5.52744 2.6953 6.77744C2.62265 7.85556 2.63436 8.92392 2.63436 10.0001C2.63436 11.0763 2.62265 12.1466 2.6953 13.2227C2.76796 14.4727 3.11015 15.5821 4.20702 16.4962C5.30624 17.4122 6.63515 17.6954 8.13515 17.7559C9.4289 17.8165 10.7109 17.8067 12.0023 17.8067C13.2961 17.8067 14.5781 17.8165 15.8695 17.7559C17.3695 17.6954 18.7008 17.4102 19.7976 16.4962C20.8969 15.5802 21.2367 14.4727 21.3094 13.2227C21.3844 12.1466 21.3703 11.0782 21.3703 10.0001ZM19.3078 14.6056C19.1367 14.961 18.9305 15.2267 18.6 15.5001C18.2695 15.7755 17.9531 15.9474 17.5266 16.0899C16.2937 16.4981 13.3664 16.4063 12 16.4063C10.6336 16.4063 7.7039 16.4981 6.47108 16.0919C6.04452 15.9493 5.72577 15.7774 5.39765 15.502C5.06718 15.2267 4.86093 14.963 4.68983 14.6075C4.20233 13.5782 4.31249 11.1388 4.31249 10.0001C4.31249 8.86142 4.20233 6.42001 4.68983 5.39267C4.86093 5.0372 5.06718 4.77158 5.39765 4.49814C5.72811 4.2247 6.04452 4.05087 6.47108 3.9083C7.7039 3.50205 10.6336 3.59384 12 3.59384C13.3664 3.59384 16.2961 3.50205 17.5289 3.9083C17.9555 4.05087 18.2742 4.22275 18.6023 4.49814C18.9328 4.77353 19.1391 5.0372 19.3101 5.39267C19.7976 6.42001 19.6875 8.86142 19.6875 10.0001C19.6875 11.1388 19.7976 13.5782 19.3078 14.6056Z" fill="#C0BCBC"/>
</svg>
