<svg width="24" height="21" viewBox="0 0 24 21" fill="none" xmlns="http://www.w3.org/2000/svg">
<path d="M21.7499 5.21515C21.0327 5.48585 20.2522 5.68067 19.4483 5.75655C20.283 5.32268 20.908 4.63723 21.2061 3.82882C20.4229 4.23649 19.5649 4.52236 18.6702 4.67374C18.2963 4.32393 17.844 4.04526 17.3415 3.85508C16.8391 3.66491 16.2973 3.56731 15.7499 3.56837C13.5351 3.56837 11.7538 5.13927 11.7538 7.067C11.7538 7.3377 11.7913 7.60841 11.8522 7.86886C8.53584 7.7171 5.57803 6.33077 3.61162 4.20821C3.25332 4.7437 3.06556 5.35342 3.06787 5.97393C3.06787 7.188 3.77334 8.25851 4.84912 8.8881C4.21515 8.86625 3.59602 8.71378 3.04209 8.44308V8.48614C3.04209 10.1862 4.41553 11.5951 6.246 11.9192C5.90231 11.9973 5.54875 12.0372 5.19365 12.0381C4.9335 12.0381 4.6874 12.0155 4.43896 11.9848C4.94521 13.3711 6.41943 14.378 8.1749 14.4109C6.80146 15.3522 5.08115 15.9059 3.21318 15.9059C2.87803 15.9059 2.56865 15.8956 2.24756 15.8628C4.01943 16.8574 6.12178 17.4317 8.38584 17.4317C15.7358 17.4317 19.7577 12.1037 19.7577 7.47921C19.7577 7.32745 19.7577 7.17569 19.746 7.02394C20.5241 6.5256 21.2061 5.90831 21.7499 5.21515Z" fill="#C0BCBC"/>
</svg>
