<svg width="24" height="20" viewBox="0 0 24 20" fill="none" xmlns="http://www.w3.org/2000/svg">
<path d="M11.9991 5.99423C9.33898 5.99423 7.1921 7.7833 7.1921 10.0001C7.1921 12.2169 9.33898 14.0059 11.9991 14.0059C14.6593 14.0059 16.8062 12.2169 16.8062 10.0001C16.8062 7.7833 14.6593 5.99423 11.9991 5.99423ZM11.9991 12.6036C10.2788 12.6036 8.87492 11.4337 8.87492 10.0001C8.87492 8.5665 10.2788 7.39658 11.9991 7.39658C13.7194 7.39658 15.1234 8.5665 15.1234 10.0001C15.1234 11.4337 13.7194 12.6036 11.9991 12.6036ZM17.003 4.89658C16.3819 4.89658 15.8804 5.31455 15.8804 5.83212C15.8804 6.3497 16.3819 6.76767 17.003 6.76767C17.6241 6.76767 18.1257 6.35165 18.1257 5.83212C18.1259 5.70922 18.097 5.5875 18.0406 5.47392C17.9843 5.36035 17.9016 5.25715 17.7973 5.17025C17.693 5.08334 17.5692 5.01444 17.4329 4.96748C17.2966 4.92052 17.1505 4.89642 17.003 4.89658ZM21.3694 10.0001C21.3694 8.92197 21.3812 7.85361 21.3085 6.77744C21.2359 5.52744 20.8937 4.41806 19.7968 3.504C18.6976 2.58798 17.3687 2.30478 15.8687 2.24423C14.5749 2.18369 13.2929 2.19345 12.0015 2.19345C10.7077 2.19345 9.4257 2.18369 8.13429 2.24423C6.63429 2.30478 5.30304 2.58994 4.20617 3.504C3.10695 4.42001 2.7671 5.52744 2.69445 6.77744C2.62179 7.85556 2.63351 8.92392 2.63351 10.0001C2.63351 11.0763 2.62179 12.1466 2.69445 13.2227C2.7671 14.4727 3.10929 15.5821 4.20617 16.4962C5.30538 17.4122 6.63429 17.6954 8.13429 17.7559C9.42804 17.8165 10.7101 17.8067 12.0015 17.8067C13.2952 17.8067 14.5773 17.8165 15.8687 17.7559C17.3687 17.6954 18.6999 17.4102 19.7968 16.4962C20.896 15.5802 21.2359 14.4727 21.3085 13.2227C21.3835 12.1466 21.3694 11.0782 21.3694 10.0001ZM19.3069 14.6056C19.1359 14.961 18.9296 15.2267 18.5991 15.5001C18.2687 15.7755 17.9523 15.9474 17.5257 16.0899C16.2929 16.4981 13.3655 16.4063 11.9991 16.4063C10.6327 16.4063 7.70304 16.4981 6.47023 16.0919C6.04367 15.9493 5.72492 15.7774 5.39679 15.502C5.06632 15.2267 4.86007 14.963 4.68898 14.6075C4.20148 13.5782 4.31163 11.1388 4.31163 10.0001C4.31163 8.86142 4.20148 6.42001 4.68898 5.39267C4.86007 5.0372 5.06632 4.77158 5.39679 4.49814C5.72726 4.2247 6.04367 4.05087 6.47023 3.9083C7.70304 3.50205 10.6327 3.59384 11.9991 3.59384C13.3655 3.59384 16.2952 3.50205 17.528 3.9083C17.9546 4.05087 18.2734 4.22275 18.6015 4.49814C18.9319 4.77353 19.1382 5.0372 19.3093 5.39267C19.7968 6.42001 19.6866 8.86142 19.6866 10.0001C19.6866 11.1388 19.7968 13.5782 19.3069 14.6056Z" fill="#C0BCBC"/>
</svg>
