<svg width="24" height="21" viewBox="0 0 24 21" fill="none" xmlns="http://www.w3.org/2000/svg">
<path d="M21.75 5.21515C21.0328 5.48585 20.2524 5.68067 19.4485 5.75655C20.2831 5.32268 20.9081 4.63723 21.2063 3.82882C20.4231 4.23649 19.5651 4.52236 18.6703 4.67374C18.2964 4.32393 17.8441 4.04526 17.3417 3.85508C16.8392 3.66491 16.2974 3.56731 15.75 3.56837C13.5352 3.56837 11.7539 5.13927 11.7539 7.067C11.7539 7.3377 11.7914 7.60841 11.8524 7.86886C8.53596 7.7171 5.57815 6.33077 3.61174 4.20821C3.25344 4.7437 3.06568 5.35342 3.06799 5.97393C3.06799 7.188 3.77346 8.25851 4.84924 8.8881C4.21527 8.86625 3.59614 8.71378 3.04221 8.44308V8.48614C3.04221 10.1862 4.41565 11.5951 6.24612 11.9192C5.90243 11.9973 5.54887 12.0372 5.19377 12.0381C4.93362 12.0381 4.68752 12.0155 4.43909 11.9848C4.94534 13.3711 6.41955 14.378 8.17502 14.4109C6.80159 15.3522 5.08127 15.9059 3.21331 15.9059C2.87815 15.9059 2.56877 15.8956 2.24768 15.8628C4.01956 16.8574 6.1219 17.4317 8.38596 17.4317C15.736 17.4317 19.7578 12.1037 19.7578 7.47921C19.7578 7.32745 19.7578 7.17569 19.7461 7.02394C20.5242 6.5256 21.2063 5.90831 21.75 5.21515Z" fill="#C0BCBC"/>
</svg>
