<svg width="24" height="20" viewBox="0 0 24 20" fill="none" xmlns="http://www.w3.org/2000/svg">
<path d="M12.0001 5.99423C9.33995 5.99423 7.19308 7.7833 7.19308 10.0001C7.19308 12.2169 9.33995 14.0059 12.0001 14.0059C14.6603 14.0059 16.8071 12.2169 16.8071 10.0001C16.8071 7.7833 14.6603 5.99423 12.0001 5.99423ZM12.0001 12.6036C10.2798 12.6036 8.87589 11.4337 8.87589 10.0001C8.87589 8.5665 10.2798 7.39658 12.0001 7.39658C13.7204 7.39658 15.1243 8.5665 15.1243 10.0001C15.1243 11.4337 13.7204 12.6036 12.0001 12.6036ZM17.004 4.89658C16.3829 4.89658 15.8814 5.31455 15.8814 5.83212C15.8814 6.3497 16.3829 6.76767 17.004 6.76767C17.6251 6.76767 18.1267 6.35165 18.1267 5.83212C18.1269 5.70922 18.0979 5.5875 18.0416 5.47392C17.9852 5.36035 17.9026 5.25715 17.7983 5.17025C17.694 5.08334 17.5701 5.01444 17.4339 4.96748C17.2976 4.92052 17.1515 4.89642 17.004 4.89658ZM21.3704 10.0001C21.3704 8.92197 21.3821 7.85361 21.3095 6.77744C21.2368 5.52744 20.8946 4.41806 19.7978 3.504C18.6985 2.58798 17.3696 2.30478 15.8696 2.24423C14.5759 2.18369 13.2939 2.19345 12.0025 2.19345C10.7087 2.19345 9.42667 2.18369 8.13527 2.24423C6.63527 2.30478 5.30402 2.58994 4.20714 3.504C3.10792 4.42001 2.76808 5.52744 2.69542 6.77744C2.62277 7.85556 2.63449 8.92392 2.63449 10.0001C2.63449 11.0763 2.62277 12.1466 2.69542 13.2227C2.76808 14.4727 3.11027 15.5821 4.20714 16.4962C5.30636 17.4122 6.63527 17.6954 8.13527 17.7559C9.42902 17.8165 10.711 17.8067 12.0025 17.8067C13.2962 17.8067 14.5782 17.8165 15.8696 17.7559C17.3696 17.6954 18.7009 17.4102 19.7978 16.4962C20.897 15.5802 21.2368 14.4727 21.3095 13.2227C21.3845 12.1466 21.3704 11.0782 21.3704 10.0001ZM19.3079 14.6056C19.1368 14.961 18.9306 15.2267 18.6001 15.5001C18.2696 15.7755 17.9532 15.9474 17.5267 16.0899C16.2939 16.4981 13.3665 16.4063 12.0001 16.4063C10.6337 16.4063 7.70402 16.4981 6.47121 16.0919C6.04464 15.9493 5.72589 15.7774 5.39777 15.502C5.0673 15.2267 4.86105 14.963 4.68996 14.6075C4.20246 13.5782 4.31261 11.1388 4.31261 10.0001C4.31261 8.86142 4.20246 6.42001 4.68996 5.39267C4.86105 5.0372 5.0673 4.77158 5.39777 4.49814C5.72824 4.2247 6.04464 4.05087 6.47121 3.9083C7.70402 3.50205 10.6337 3.59384 12.0001 3.59384C13.3665 3.59384 16.2962 3.50205 17.529 3.9083C17.9556 4.05087 18.2743 4.22275 18.6025 4.49814C18.9329 4.77353 19.1392 5.0372 19.3103 5.39267C19.7978 6.42001 19.6876 8.86142 19.6876 10.0001C19.6876 11.1388 19.7978 13.5782 19.3079 14.6056Z" fill="#C0BCBC"/>
</svg>
