<svg width="24" height="21" viewBox="0 0 24 21" fill="none" xmlns="http://www.w3.org/2000/svg">
<path d="M21.7504 5.21515C21.0332 5.48585 20.2527 5.68067 19.4488 5.75655C20.2835 5.32268 20.9085 4.63723 21.2066 3.82882C20.4234 4.23649 19.5654 4.52236 18.6707 4.67374C18.2967 4.32393 17.8445 4.04526 17.342 3.85508C16.8396 3.66491 16.2978 3.56731 15.7504 3.56837C13.5355 3.56837 11.7543 5.13927 11.7543 7.067C11.7543 7.3377 11.7918 7.60841 11.8527 7.86886C8.53633 7.7171 5.57852 6.33077 3.61211 4.20821C3.25381 4.7437 3.06605 5.35342 3.06836 5.97393C3.06836 7.188 3.77383 8.25851 4.84961 8.8881C4.21563 8.86625 3.59651 8.71378 3.04258 8.44308V8.48614C3.04258 10.1862 4.41602 11.5951 6.24648 11.9192C5.90279 11.9973 5.54923 12.0372 5.19414 12.0381C4.93398 12.0381 4.68789 12.0155 4.43945 11.9848C4.9457 13.3711 6.41992 14.378 8.17539 14.4109C6.80195 15.3522 5.08164 15.9059 3.21367 15.9059C2.87852 15.9059 2.56914 15.8956 2.24805 15.8628C4.01992 16.8574 6.12226 17.4317 8.38633 17.4317C15.7363 17.4317 19.7582 12.1037 19.7582 7.47921C19.7582 7.32745 19.7582 7.17569 19.7465 7.02394C20.5246 6.5256 21.2066 5.90831 21.7504 5.21515Z" fill="#C0BCBC"/>
</svg>
