<svg width="60" height="43" viewBox="0 0 60 43" fill="none" xmlns="http://www.w3.org/2000/svg">
<path d="M1.32381 31.728C0.941525 31.5992 0.605926 31.3318 0.367275 30.966C0.128625 30.6001 -0.000233 30.1555 0 29.6986L0 12.7874C0.000221964 12.4527 0.0697896 12.1227 0.202976 11.8248C0.336163 11.5269 0.52916 11.2695 0.766079 11.0738C1.003 10.8781 1.27706 10.7498 1.56572 10.6993C1.85437 10.6488 2.14935 10.6777 2.42638 10.7834L22.125 18.3089V2.21791C22.1248 1.82204 22.2215 1.43406 22.4042 1.09813C22.5868 0.762192 22.8481 0.49181 23.1582 0.317776C23.4683 0.143742 23.8148 0.0730476 24.1583 0.113735C24.5017 0.154427 24.8283 0.304863 25.1008 0.547924L58.2883 30.1426C58.63 30.4457 58.8679 30.8768 58.9606 31.3606C59.0533 31.8444 58.9949 32.3501 58.7956 32.7895C58.5962 33.229 58.2687 33.5742 57.87 33.765C57.4713 33.9558 57.0269 33.98 56.6142 33.8334L35.0313 26.2192V40.2682C35.0314 40.5968 34.9648 40.921 34.8366 41.2149C34.7083 41.5089 34.5221 41.7645 34.2927 41.9615C34.0632 42.1585 33.7969 42.2914 33.5148 42.3497C33.2327 42.4081 32.9426 42.3902 32.6676 42.2975L1.32381 31.728Z" fill="#3B39A5"/>
<path d="M1.32381 31.728C0.941525 31.5992 0.605926 31.3318 0.367275 30.966C0.128625 30.6001 -0.000233 30.1555 0 29.6986L0 12.7874C0.000221964 12.4527 0.0697896 12.1227 0.202976 11.8248C0.336163 11.5269 0.52916 11.2695 0.766079 11.0738C1.003 10.8781 1.27706 10.7498 1.56572 10.6993C1.85437 10.6488 2.14935 10.6777 2.42638 10.7834L22.125 18.3089V2.21791C22.1248 1.82204 22.2215 1.43406 22.4042 1.09813C22.5868 0.762192 22.8481 0.49181 23.1582 0.317776C23.4683 0.143742 23.8148 0.0730476 24.1583 0.113735C24.5017 0.154427 24.8283 0.304863 25.1008 0.547924L58.2883 30.1426C58.63 30.4457 58.8679 30.8768 58.9606 31.3606C59.0533 31.8444 58.9949 32.3501 58.7956 32.7895C58.5962 33.229 58.2687 33.5742 57.87 33.765C57.4713 33.9558 57.0269 33.98 56.6142 33.8334L35.0313 26.2192V40.2682C35.0314 40.5968 34.9648 40.921 34.8366 41.2149C34.7083 41.5089 34.5221 41.7645 34.2927 41.9615C34.0632 42.1585 33.7969 42.2914 33.5148 42.3497C33.2327 42.4081 32.9426 42.3902 32.6676 42.2975L1.32381 31.728Z" stroke="#3B39A5"/>
</svg>
