<svg width="60" height="43" viewBox="0 0 60 43" fill="none" xmlns="http://www.w3.org/2000/svg">
<path d="M57.6796 10.9072C58.0619 11.0361 58.3975 11.3034 58.6361 11.6693C58.8748 12.0351 59.0037 12.4797 59.0034 12.9366V29.8477C59.0032 30.1825 58.9336 30.5124 58.8004 30.8104C58.6673 31.1083 58.4743 31.3657 58.2373 31.5613C58.0004 31.757 57.7264 31.8854 57.4377 31.9359C57.1491 31.9863 56.8541 31.9575 56.577 31.8517L36.8784 24.3262V40.4172C36.8787 40.8131 36.7819 41.2011 36.5993 41.537C36.4166 41.8729 36.1554 42.1433 35.8452 42.3174C35.5351 42.4914 35.1886 42.5621 34.8452 42.5214C34.5017 42.4807 34.1751 42.3303 33.9026 42.0872L0.715103 12.4927C0.373482 12.1895 0.135563 11.7584 0.0428619 11.2746C-0.049839 10.7909 0.00856781 10.2851 0.20789 9.8457C0.407207 9.40627 0.734787 9.06103 1.13346 8.87024C1.53212 8.67945 1.97657 8.65523 2.38923 8.80179L23.9722 16.416V2.36709C23.972 2.03844 24.0387 1.71427 24.1669 1.42033C24.2951 1.12639 24.4813 0.870775 24.7108 0.673783C24.9402 0.47679 25.2066 0.343849 25.4887 0.285517C25.7708 0.227185 26.0608 0.245068 26.3359 0.337747L57.6796 10.9072Z" fill="#3B39A5"/>
<path d="M57.6796 10.9072C58.0619 11.0361 58.3975 11.3034 58.6361 11.6693C58.8748 12.0351 59.0037 12.4797 59.0034 12.9366V29.8477C59.0032 30.1825 58.9336 30.5124 58.8004 30.8104C58.6673 31.1083 58.4743 31.3657 58.2373 31.5613C58.0004 31.757 57.7264 31.8854 57.4377 31.9359C57.1491 31.9863 56.8541 31.9575 56.577 31.8517L36.8784 24.3262V40.4172C36.8787 40.8131 36.7819 41.2011 36.5993 41.537C36.4166 41.8729 36.1554 42.1433 35.8452 42.3174C35.5351 42.4914 35.1886 42.5621 34.8452 42.5214C34.5017 42.4807 34.1751 42.3303 33.9026 42.0872L0.715103 12.4927C0.373482 12.1895 0.135563 11.7584 0.0428619 11.2746C-0.049839 10.7909 0.00856781 10.2851 0.20789 9.8457C0.407207 9.40627 0.734787 9.06103 1.13346 8.87024C1.53212 8.67945 1.97657 8.65523 2.38923 8.80179L23.9722 16.416V2.36709C23.972 2.03844 24.0387 1.71427 24.1669 1.42033C24.2951 1.12639 24.4813 0.870775 24.7108 0.673783C24.9402 0.47679 25.2066 0.343849 25.4887 0.285517C25.7708 0.227185 26.0608 0.245068 26.3359 0.337747L57.6796 10.9072Z" stroke="#3B39A5"/>
</svg>
