<svg width="60" height="43" viewBox="0 0 60 43" fill="none" xmlns="http://www.w3.org/2000/svg">
<path d="M57.6797 10.9072C58.062 11.0361 58.3976 11.3034 58.6363 11.6693C58.8749 12.0351 59.0038 12.4797 59.0035 12.9366V29.8477C59.0033 30.1825 58.9338 30.5124 58.8006 30.8104C58.6674 31.1083 58.4744 31.3657 58.2375 31.5613C58.0005 31.757 57.7265 31.8854 57.4378 31.9359C57.1492 31.9863 56.8542 31.9575 56.5772 31.8517L36.8785 24.3262V40.4172C36.8788 40.8131 36.7821 41.2011 36.5994 41.537C36.4167 41.8729 36.1555 42.1433 35.8454 42.3174C35.5352 42.4914 35.1887 42.5621 34.8453 42.5214C34.5018 42.4807 34.1753 42.3303 33.9027 42.0872L0.715225 12.4927C0.373604 12.1895 0.135685 11.7584 0.042984 11.2746C-0.0497169 10.7909 0.00868988 10.2851 0.208012 9.8457C0.40733 9.40627 0.734909 9.06103 1.13358 8.87024C1.53225 8.67945 1.97669 8.65523 2.38935 8.80179L23.9723 16.416V2.36709C23.9721 2.03844 24.0388 1.71427 24.167 1.42033C24.2952 1.12639 24.4814 0.870775 24.7109 0.673783C24.9403 0.47679 25.2067 0.343849 25.4888 0.285517C25.7709 0.227185 26.061 0.245068 26.336 0.337747L57.6797 10.9072Z" fill="#3B39A5"/>
<path d="M57.6797 10.9072C58.062 11.0361 58.3976 11.3034 58.6363 11.6693C58.8749 12.0351 59.0038 12.4797 59.0035 12.9366V29.8477C59.0033 30.1825 58.9338 30.5124 58.8006 30.8104C58.6674 31.1083 58.4744 31.3657 58.2375 31.5613C58.0005 31.757 57.7265 31.8854 57.4378 31.9359C57.1492 31.9863 56.8542 31.9575 56.5772 31.8517L36.8785 24.3262V40.4172C36.8788 40.8131 36.7821 41.2011 36.5994 41.537C36.4167 41.8729 36.1555 42.1433 35.8454 42.3174C35.5352 42.4914 35.1887 42.5621 34.8453 42.5214C34.5018 42.4807 34.1753 42.3303 33.9027 42.0872L0.715225 12.4927C0.373604 12.1895 0.135685 11.7584 0.042984 11.2746C-0.0497169 10.7909 0.00868988 10.2851 0.208012 9.8457C0.40733 9.40627 0.734909 9.06103 1.13358 8.87024C1.53225 8.67945 1.97669 8.65523 2.38935 8.80179L23.9723 16.416V2.36709C23.9721 2.03844 24.0388 1.71427 24.167 1.42033C24.2952 1.12639 24.4814 0.870775 24.7109 0.673783C24.9403 0.47679 25.2067 0.343849 25.4888 0.285517C25.7709 0.227185 26.061 0.245068 26.336 0.337747L57.6797 10.9072Z" stroke="#3B39A5"/>
</svg>
