<svg width="60" height="43" viewBox="0 0 60 43" fill="none" xmlns="http://www.w3.org/2000/svg">
<path d="M1.32381 31.8779C0.941525 31.7491 0.605926 31.4817 0.367275 31.1159C0.128625 30.75 -0.000233 30.3054 0 29.8485L0 12.9373C0.000221964 12.6026 0.0697896 12.2726 0.202976 11.9747C0.336163 11.6768 0.52916 11.4194 0.766079 11.2237C1.003 11.028 1.27706 10.8997 1.56572 10.8492C1.85437 10.7987 2.14935 10.8276 2.42638 10.9333L22.125 18.4588L22.125 2.36781C22.1248 1.97195 22.2215 1.58396 22.4042 1.24803C22.5868 0.912094 22.8481 0.641712 23.1582 0.467678C23.4683 0.293644 23.8148 0.22295 24.1583 0.263638C24.5017 0.304329 24.8283 0.454765 25.1008 0.697826L58.2883 30.2925C58.63 30.5956 58.8679 31.0267 58.9606 31.5105C59.0533 31.9943 58.9949 32.5 58.7956 32.9394C58.5962 33.3789 58.2687 33.7241 57.87 33.9149C57.4713 34.1057 57.0269 34.1299 56.6142 33.9833L35.0313 26.3691V40.4181C35.0314 40.7467 34.9648 41.0709 34.8366 41.3648C34.7083 41.6588 34.5221 41.9144 34.2927 42.1114C34.0632 42.3084 33.7969 42.4413 33.5148 42.4996C33.2327 42.558 32.9426 42.5401 32.6676 42.4474L1.32381 31.8779Z" fill="#3B39A5"/>
<path d="M1.32381 31.8779C0.941525 31.7491 0.605926 31.4817 0.367275 31.1159C0.128625 30.75 -0.000233 30.3054 0 29.8485L0 12.9373C0.000221964 12.6026 0.0697896 12.2726 0.202976 11.9747C0.336163 11.6768 0.52916 11.4194 0.766079 11.2237C1.003 11.028 1.27706 10.8997 1.56572 10.8492C1.85437 10.7987 2.14935 10.8276 2.42638 10.9333L22.125 18.4588L22.125 2.36781C22.1248 1.97195 22.2215 1.58396 22.4042 1.24803C22.5868 0.912094 22.8481 0.641712 23.1582 0.467678C23.4683 0.293644 23.8148 0.22295 24.1583 0.263638C24.5017 0.304329 24.8283 0.454765 25.1008 0.697826L58.2883 30.2925C58.63 30.5956 58.8679 31.0267 58.9606 31.5105C59.0533 31.9943 58.9949 32.5 58.7956 32.9394C58.5962 33.3789 58.2687 33.7241 57.87 33.9149C57.4713 34.1057 57.0269 34.1299 56.6142 33.9833L35.0313 26.3691V40.4181C35.0314 40.7467 34.9648 41.0709 34.8366 41.3648C34.7083 41.6588 34.5221 41.9144 34.2927 42.1114C34.0632 42.3084 33.7969 42.4413 33.5148 42.4996C33.2327 42.558 32.9426 42.5401 32.6676 42.4474L1.32381 31.8779Z" stroke="#3B39A5"/>
</svg>
