<svg width="60" height="43" viewBox="0 0 60 43" fill="none" xmlns="http://www.w3.org/2000/svg">
<path d="M57.3602 11.8548L57.3603 11.8549C57.5117 11.9059 57.6719 12.0213 57.7987 12.2156C57.9262 12.4111 58.0036 12.664 58.0035 12.9361V12.9366V29.8474C58.0033 30.0454 57.9619 30.236 57.8876 30.4022L58.8005 30.8104L57.8876 30.4022C57.8133 30.5685 57.7115 30.6988 57.6006 30.7903L58.2354 31.5588L57.6006 30.7903C57.4906 30.8812 57.375 30.9317 57.2655 30.9508C57.1568 30.9698 57.0445 30.9598 56.9339 30.9175L37.2354 23.3921L35.8785 22.8737V24.3262V40.4172V40.4178C35.8787 40.6527 35.8208 40.8755 35.7208 41.0593C35.6211 41.2427 35.4894 41.3704 35.3559 41.4453C35.2247 41.5189 35.09 41.5434 34.9629 41.5283L34.8453 42.5214L34.9629 41.5283C34.8348 41.5132 34.6968 41.4556 34.5683 41.3409L34.5682 41.3409L1.38075 11.7463L1.37896 11.7447C1.21554 11.5997 1.07975 11.3717 1.02509 11.0864C0.970417 10.8011 1.00661 10.5058 1.11868 10.2588L0.207981 9.8457L1.11868 10.2588C1.23038 10.0125 1.39878 9.85193 1.56523 9.77227C1.72647 9.69511 1.89523 9.6875 2.05465 9.74412L2.05663 9.74482L23.6396 17.3591L24.9723 17.8292V16.416V2.36709V2.36658C24.9722 2.17218 25.0118 1.98464 25.0836 1.82014C25.1553 1.65574 25.254 1.52547 25.3623 1.43251C25.4698 1.34018 25.5834 1.2871 25.6913 1.2648C25.7983 1.24267 25.9082 1.24889 26.0164 1.28532C26.0165 1.28534 26.0165 1.28536 26.0166 1.28538L57.3602 11.8548Z" fill="#3B39A5" stroke="#3B39A5" stroke-width="2"/>
</svg>
