<svg width="60" height="43" viewBox="0 0 60 43" fill="none" xmlns="http://www.w3.org/2000/svg">
<path d="M57.6801 10.9072C58.0624 11.0361 58.398 11.3034 58.6366 11.6693C58.8753 12.0351 59.0041 12.4797 59.0039 12.9366V29.8477C59.0037 30.1825 58.9341 30.5124 58.8009 30.8104C58.6677 31.1083 58.4747 31.3657 58.2378 31.5613C58.0009 31.757 57.7268 31.8854 57.4382 31.9359C57.1495 31.9863 56.8546 31.9575 56.5775 31.8517L36.8789 24.3262V40.4172C36.8791 40.8131 36.7824 41.2011 36.5998 41.537C36.4171 41.8729 36.1558 42.1433 35.8457 42.3174C35.5356 42.4914 35.1891 42.5621 34.8456 42.5214C34.5022 42.4807 34.1756 42.3303 33.9031 42.0872L0.715591 12.4927C0.37397 12.1895 0.136051 11.7584 0.0433502 11.2746C-0.0493507 10.7909 0.00905609 10.2851 0.208378 9.8457C0.407696 9.40627 0.735275 9.06103 1.13395 8.87024C1.53261 8.67945 1.97706 8.65523 2.38972 8.80179L23.9727 16.416V2.36709C23.9725 2.03844 24.0392 1.71427 24.1674 1.42033C24.2956 1.12639 24.4818 0.870775 24.7113 0.673783C24.9407 0.47679 25.2071 0.343849 25.4892 0.285517C25.7713 0.227185 26.0613 0.245068 26.3363 0.337747L57.6801 10.9072Z" fill="#3B39A5"/>
<path d="M57.6801 10.9072C58.0624 11.0361 58.398 11.3034 58.6366 11.6693C58.8753 12.0351 59.0041 12.4797 59.0039 12.9366V29.8477C59.0037 30.1825 58.9341 30.5124 58.8009 30.8104C58.6677 31.1083 58.4747 31.3657 58.2378 31.5613C58.0009 31.757 57.7268 31.8854 57.4382 31.9359C57.1495 31.9863 56.8546 31.9575 56.5775 31.8517L36.8789 24.3262V40.4172C36.8791 40.8131 36.7824 41.2011 36.5998 41.537C36.4171 41.8729 36.1558 42.1433 35.8457 42.3174C35.5356 42.4914 35.1891 42.5621 34.8456 42.5214C34.5022 42.4807 34.1756 42.3303 33.9031 42.0872L0.715591 12.4927C0.37397 12.1895 0.136051 11.7584 0.0433502 11.2746C-0.0493507 10.7909 0.00905609 10.2851 0.208378 9.8457C0.407696 9.40627 0.735275 9.06103 1.13395 8.87024C1.53261 8.67945 1.97706 8.65523 2.38972 8.80179L23.9727 16.416V2.36709C23.9725 2.03844 24.0392 1.71427 24.1674 1.42033C24.2956 1.12639 24.4818 0.870775 24.7113 0.673783C24.9407 0.47679 25.2071 0.343849 25.4892 0.285517C25.7713 0.227185 26.0613 0.245068 26.3363 0.337747L57.6801 10.9072Z" stroke="#3B39A5"/>
</svg>
