<svg width="20" height="16" viewBox="0 0 20 16" fill="none" xmlns="http://www.w3.org/2000/svg">
<path d="M10.0001 3.99423C7.33995 3.99423 5.19308 5.7833 5.19308 8.00009C5.19308 10.2169 7.33995 12.0059 10.0001 12.0059C12.6603 12.0059 14.8071 10.2169 14.8071 8.00009C14.8071 5.7833 12.6603 3.99423 10.0001 3.99423ZM10.0001 10.6036C8.2798 10.6036 6.87589 9.43369 6.87589 8.00009C6.87589 6.5665 8.2798 5.39658 10.0001 5.39658C11.7204 5.39658 13.1243 6.5665 13.1243 8.00009C13.1243 9.43369 11.7204 10.6036 10.0001 10.6036ZM15.004 2.89658C14.3829 2.89658 13.8814 3.31455 13.8814 3.83212C13.8814 4.3497 14.3829 4.76767 15.004 4.76767C15.6251 4.76767 16.1267 4.35165 16.1267 3.83212C16.1269 3.70922 16.0979 3.5875 16.0416 3.47392C15.9852 3.36035 15.9026 3.25715 15.7983 3.17025C15.694 3.08334 15.5701 3.01444 15.4339 2.96748C15.2976 2.92052 15.1515 2.89642 15.004 2.89658ZM19.3704 8.00009C19.3704 6.92197 19.3821 5.85361 19.3095 4.77744C19.2368 3.52744 18.8946 2.41806 17.7978 1.504C16.6985 0.587983 15.3696 0.30478 13.8696 0.244233C12.5759 0.183686 11.2939 0.193452 10.0025 0.193452C8.7087 0.193452 7.42667 0.183686 6.13527 0.244233C4.63527 0.30478 3.30402 0.589936 2.20714 1.504C1.10792 2.42001 0.76808 3.52744 0.695424 4.77744C0.622767 5.85556 0.634486 6.92392 0.634486 8.00009C0.634486 9.07626 0.622767 10.1466 0.695424 11.2227C0.76808 12.4727 1.11027 13.5821 2.20714 14.4962C3.30636 15.4122 4.63527 15.6954 6.13527 15.7559C7.42902 15.8165 8.71105 15.8067 10.0025 15.8067C11.2962 15.8067 12.5782 15.8165 13.8696 15.7559C15.3696 15.6954 16.7009 15.4102 17.7978 14.4962C18.897 13.5802 19.2368 12.4727 19.3095 11.2227C19.3845 10.1466 19.3704 9.07822 19.3704 8.00009ZM17.3079 12.6056C17.1368 12.961 16.9306 13.2267 16.6001 13.5001C16.2696 13.7755 15.9532 13.9474 15.5267 14.0899C14.2939 14.4981 11.3665 14.4063 10.0001 14.4063C8.6337 14.4063 5.70402 14.4981 4.47121 14.0919C4.04464 13.9493 3.72589 13.7774 3.39777 13.502C3.0673 13.2267 2.86105 12.963 2.68996 12.6075C2.20246 11.5782 2.31261 9.13876 2.31261 8.00009C2.31261 6.86142 2.20246 4.42001 2.68996 3.39267C2.86105 3.0372 3.0673 2.77158 3.39777 2.49814C3.72824 2.2247 4.04464 2.05087 4.47121 1.9083C5.70402 1.50205 8.6337 1.59384 10.0001 1.59384C11.3665 1.59384 14.2962 1.50205 15.529 1.9083C15.9556 2.05087 16.2743 2.22275 16.6025 2.49814C16.9329 2.77353 17.1392 3.0372 17.3103 3.39267C17.7978 4.42001 17.6876 6.86142 17.6876 8.00009C17.6876 9.13876 17.7978 11.5782 17.3079 12.6056Z" fill="#C0BCBC"/>
</svg>
