<svg width="20" height="16" viewBox="0 0 20 16" fill="none" xmlns="http://www.w3.org/2000/svg">
<path d="M9.99999 3.99423C7.33983 3.99423 5.19296 5.7833 5.19296 8.00009C5.19296 10.2169 7.33983 12.0059 9.99999 12.0059C12.6601 12.0059 14.807 10.2169 14.807 8.00009C14.807 5.7833 12.6601 3.99423 9.99999 3.99423ZM9.99999 10.6036C8.27968 10.6036 6.87577 9.43369 6.87577 8.00009C6.87577 6.5665 8.27968 5.39658 9.99999 5.39658C11.7203 5.39658 13.1242 6.5665 13.1242 8.00009C13.1242 9.43369 11.7203 10.6036 9.99999 10.6036ZM15.0039 2.89658C14.3828 2.89658 13.8812 3.31455 13.8812 3.83212C13.8812 4.3497 14.3828 4.76767 15.0039 4.76767C15.625 4.76767 16.1266 4.35165 16.1266 3.83212C16.1267 3.70922 16.0978 3.5875 16.0415 3.47392C15.9851 3.36035 15.9024 3.25715 15.7981 3.17025C15.6939 3.08334 15.57 3.01444 15.4337 2.96748C15.2974 2.92052 15.1514 2.89642 15.0039 2.89658ZM19.3703 8.00009C19.3703 6.92197 19.382 5.85361 19.3094 4.77744C19.2367 3.52744 18.8945 2.41806 17.7976 1.504C16.6984 0.587983 15.3695 0.30478 13.8695 0.244233C12.5758 0.183686 11.2937 0.193452 10.0023 0.193452C8.70858 0.193452 7.42655 0.183686 6.13515 0.244233C4.63515 0.30478 3.3039 0.589936 2.20702 1.504C1.1078 2.42001 0.767958 3.52744 0.695302 4.77744C0.622645 5.85556 0.634364 6.92392 0.634364 8.00009C0.634364 9.07626 0.622645 10.1466 0.695302 11.2227C0.767958 12.4727 1.11015 13.5821 2.20702 14.4962C3.30624 15.4122 4.63515 15.6954 6.13515 15.7559C7.4289 15.8165 8.71093 15.8067 10.0023 15.8067C11.2961 15.8067 12.5781 15.8165 13.8695 15.7559C15.3695 15.6954 16.7008 15.4102 17.7976 14.4962C18.8969 13.5802 19.2367 12.4727 19.3094 11.2227C19.3844 10.1466 19.3703 9.07822 19.3703 8.00009ZM17.3078 12.6056C17.1367 12.961 16.9305 13.2267 16.6 13.5001C16.2695 13.7755 15.9531 13.9474 15.5266 14.0899C14.2937 14.4981 11.3664 14.4063 9.99999 14.4063C8.63358 14.4063 5.7039 14.4981 4.47108 14.0919C4.04452 13.9493 3.72577 13.7774 3.39765 13.502C3.06718 13.2267 2.86093 12.963 2.68983 12.6075C2.20233 11.5782 2.31249 9.13876 2.31249 8.00009C2.31249 6.86142 2.20233 4.42001 2.68983 3.39267C2.86093 3.0372 3.06718 2.77158 3.39765 2.49814C3.72811 2.2247 4.04452 2.05087 4.47108 1.9083C5.7039 1.50205 8.63358 1.59384 9.99999 1.59384C11.3664 1.59384 14.2961 1.50205 15.5289 1.9083C15.9555 2.05087 16.2742 2.22275 16.6023 2.49814C16.9328 2.77353 17.1391 3.0372 17.3101 3.39267C17.7976 4.42001 17.6875 6.86142 17.6875 8.00009C17.6875 9.13876 17.7976 11.5782 17.3078 12.6056Z" fill="#C0BCBC"/>
</svg>
