<svg width="1440" height="1439" viewBox="0 0 1440 1439" fill="none" xmlns="http://www.w3.org/2000/svg">
<rect width="1440" height="1439" fill="white"/>
<path d="M407.028 269.09L400.218 282.11V290H397.488V282.11L390.648 269.09H393.678L398.838 279.68L403.998 269.09H407.028ZM417.077 290.27C415.537 290.27 414.137 289.92 412.877 289.22C411.637 288.52 410.657 287.53 409.937 286.25C409.237 284.95 408.887 283.45 408.887 281.75C408.887 280.07 409.247 278.59 409.967 277.31C410.707 276.01 411.707 275.02 412.967 274.34C414.227 273.64 415.637 273.29 417.197 273.29C418.757 273.29 420.167 273.64 421.427 274.34C422.687 275.02 423.677 276 424.397 277.28C425.137 278.56 425.507 280.05 425.507 281.75C425.507 283.45 425.127 284.95 424.367 286.25C423.627 287.53 422.617 288.52 421.337 289.22C420.057 289.92 418.637 290.27 417.077 290.27ZM417.077 287.87C418.057 287.87 418.977 287.64 419.837 287.18C420.697 286.72 421.387 286.03 421.907 285.11C422.447 284.19 422.717 283.07 422.717 281.75C422.717 280.43 422.457 279.31 421.937 278.39C421.417 277.47 420.737 276.79 419.897 276.35C419.057 275.89 418.147 275.66 417.167 275.66C416.167 275.66 415.247 275.89 414.407 276.35C413.587 276.79 412.927 277.47 412.427 278.39C411.927 279.31 411.677 280.43 411.677 281.75C411.677 283.09 411.917 284.22 412.397 285.14C412.897 286.06 413.557 286.75 414.377 287.21C415.197 287.65 416.097 287.87 417.077 287.87ZM443.677 273.56V290H440.947V287.57C440.427 288.41 439.697 289.07 438.757 289.55C437.837 290.01 436.817 290.24 435.697 290.24C434.417 290.24 433.267 289.98 432.247 289.46C431.227 288.92 430.417 288.12 429.817 287.06C429.237 286 428.947 284.71 428.947 283.19V273.56H431.647V282.83C431.647 284.45 432.057 285.7 432.877 286.58C433.697 287.44 434.817 287.87 436.237 287.87C437.697 287.87 438.847 287.42 439.687 286.52C440.527 285.62 440.947 284.31 440.947 282.59V273.56H443.677ZM464.444 273.26C465.684 273.26 466.804 273.53 467.804 274.07C468.804 274.59 469.584 275.38 470.144 276.44C470.724 277.5 471.014 278.79 471.014 280.31V290H468.314V280.7C468.314 279.06 467.904 277.81 467.084 276.95C466.264 276.07 465.144 275.63 463.724 275.63C462.284 275.63 461.134 276.08 460.274 276.98C459.434 277.88 459.014 279.19 459.014 280.91V290H456.284V267.8H459.014V275.9C459.554 275.06 460.294 274.41 461.234 273.95C462.194 273.49 463.264 273.26 464.444 273.26ZM474.454 281.72C474.454 280.04 474.794 278.57 475.474 277.31C476.154 276.03 477.084 275.04 478.264 274.34C479.464 273.64 480.794 273.29 482.254 273.29C483.694 273.29 484.944 273.6 486.004 274.22C487.064 274.84 487.854 275.62 488.374 276.56V273.56H491.134V290H488.374V286.94C487.834 287.9 487.024 288.7 485.944 289.34C484.884 289.96 483.644 290.27 482.224 290.27C480.764 290.27 479.444 289.91 478.264 289.19C477.084 288.47 476.154 287.46 475.474 286.16C474.794 284.86 474.454 283.38 474.454 281.72ZM488.374 281.75C488.374 280.51 488.124 279.43 487.624 278.51C487.124 277.59 486.444 276.89 485.584 276.41C484.744 275.91 483.814 275.66 482.794 275.66C481.774 275.66 480.844 275.9 480.004 276.38C479.164 276.86 478.494 277.56 477.994 278.48C477.494 279.4 477.244 280.48 477.244 281.72C477.244 282.98 477.494 284.08 477.994 285.02C478.494 285.94 479.164 286.65 480.004 287.15C480.844 287.63 481.774 287.87 482.794 287.87C483.814 287.87 484.744 287.63 485.584 287.15C486.444 286.65 487.124 285.94 487.624 285.02C488.124 284.08 488.374 282.99 488.374 281.75ZM499.077 275.81V285.5C499.077 286.3 499.247 286.87 499.587 287.21C499.927 287.53 500.517 287.69 501.357 287.69H503.367V290H500.907C499.387 290 498.247 289.65 497.487 288.95C496.727 288.25 496.347 287.1 496.347 285.5V275.81H494.217V273.56H496.347V269.42H499.077V273.56H503.367V275.81H499.077ZM521.675 281.15C521.675 281.67 521.645 282.22 521.585 282.8H508.445C508.545 284.42 509.095 285.69 510.095 286.61C511.115 287.51 512.345 287.96 513.785 287.96C514.965 287.96 515.945 287.69 516.725 287.15C517.525 286.59 518.085 285.85 518.405 284.93H521.345C520.905 286.51 520.025 287.8 518.705 288.8C517.385 289.78 515.745 290.27 513.785 290.27C512.225 290.27 510.825 289.92 509.585 289.22C508.365 288.52 507.405 287.53 506.705 286.25C506.005 284.95 505.655 283.45 505.655 281.75C505.655 280.05 505.995 278.56 506.675 277.28C507.355 276 508.305 275.02 509.525 274.34C510.765 273.64 512.185 273.29 513.785 273.29C515.345 273.29 516.725 273.63 517.925 274.31C519.125 274.99 520.045 275.93 520.685 277.13C521.345 278.31 521.675 279.65 521.675 281.15ZM518.855 280.58C518.855 279.54 518.625 278.65 518.165 277.91C517.705 277.15 517.075 276.58 516.275 276.2C515.495 275.8 514.625 275.6 513.665 275.6C512.285 275.6 511.105 276.04 510.125 276.92C509.165 277.8 508.615 279.02 508.475 280.58H518.855ZM536.006 276.59C536.546 275.65 537.346 274.87 538.406 274.25C539.486 273.61 540.736 273.29 542.156 273.29C543.616 273.29 544.936 273.64 546.116 274.34C547.316 275.04 548.256 276.03 548.936 277.31C549.616 278.57 549.956 280.04 549.956 281.72C549.956 283.38 549.616 284.86 548.936 286.16C548.256 287.46 547.316 288.47 546.116 289.19C544.936 289.91 543.616 290.27 542.156 290.27C540.756 290.27 539.516 289.96 538.436 289.34C537.376 288.7 536.566 287.91 536.006 286.97V297.8H533.276V273.56H536.006V276.59ZM547.166 281.72C547.166 280.48 546.916 279.4 546.416 278.48C545.916 277.56 545.236 276.86 544.376 276.38C543.536 275.9 542.606 275.66 541.586 275.66C540.586 275.66 539.656 275.91 538.796 276.41C537.956 276.89 537.276 277.6 536.756 278.54C536.256 279.46 536.006 280.53 536.006 281.75C536.006 282.99 536.256 284.08 536.756 285.02C537.276 285.94 537.956 286.65 538.796 287.15C539.656 287.63 540.586 287.87 541.586 287.87C542.606 287.87 543.536 287.63 544.376 287.15C545.236 286.65 545.916 285.94 546.416 285.02C546.916 284.08 547.166 282.98 547.166 281.72ZM552.53 281.72C552.53 280.04 552.87 278.57 553.55 277.31C554.23 276.03 555.16 275.04 556.34 274.34C557.54 273.64 558.87 273.29 560.33 273.29C561.77 273.29 563.02 273.6 564.08 274.22C565.14 274.84 565.93 275.62 566.45 276.56V273.56H569.21V290H566.45V286.94C565.91 287.9 565.1 288.7 564.02 289.34C562.96 289.96 561.72 290.27 560.3 290.27C558.84 290.27 557.52 289.91 556.34 289.19C555.16 288.47 554.23 287.46 553.55 286.16C552.87 284.86 552.53 283.38 552.53 281.72ZM566.45 281.75C566.45 280.51 566.2 279.43 565.7 278.51C565.2 277.59 564.52 276.89 563.66 276.41C562.82 275.91 561.89 275.66 560.87 275.66C559.85 275.66 558.92 275.9 558.08 276.38C557.24 276.86 556.57 277.56 556.07 278.48C555.57 279.4 555.32 280.48 555.32 281.72C555.32 282.98 555.57 284.08 556.07 285.02C556.57 285.94 557.24 286.65 558.08 287.15C558.92 287.63 559.85 287.87 560.87 287.87C561.89 287.87 562.82 287.63 563.66 287.15C564.52 286.65 565.2 285.94 565.7 285.02C566.2 284.08 566.45 282.99 566.45 281.75ZM576.553 276.23C577.033 275.29 577.713 274.56 578.593 274.04C579.493 273.52 580.583 273.26 581.863 273.26V276.08H581.143C578.083 276.08 576.553 277.74 576.553 281.06V290H573.823V273.56H576.553V276.23ZM588.345 275.81V285.5C588.345 286.3 588.515 286.87 588.855 287.21C589.195 287.53 589.785 287.69 590.625 287.69H592.635V290H590.175C588.655 290 587.515 289.65 586.755 288.95C585.995 288.25 585.615 287.1 585.615 285.5V275.81H583.485V273.56H585.615V269.42H588.345V273.56H592.635V275.81H588.345ZM610.102 273.56L600.202 297.74H597.382L600.622 289.82L593.992 273.56H597.022L602.182 286.88L607.282 273.56H610.102ZM614.257 270.89C613.737 270.89 613.297 270.71 612.937 270.35C612.577 269.99 612.397 269.55 612.397 269.03C612.397 268.51 612.577 268.07 612.937 267.71C613.297 267.35 613.737 267.17 614.257 267.17C614.757 267.17 615.177 267.35 615.517 267.71C615.877 268.07 616.057 268.51 616.057 269.03C616.057 269.55 615.877 269.99 615.517 270.35C615.177 270.71 614.757 270.89 614.257 270.89ZM615.577 273.56V290H612.847V273.56H615.577ZM628.239 273.26C630.239 273.26 631.859 273.87 633.099 275.09C634.339 276.29 634.959 278.03 634.959 280.31V290H632.259V280.7C632.259 279.06 631.849 277.81 631.029 276.95C630.209 276.07 629.089 275.63 627.669 275.63C626.229 275.63 625.079 276.08 624.219 276.98C623.379 277.88 622.959 279.19 622.959 280.91V290H620.229V273.56H622.959V275.9C623.499 275.06 624.229 274.41 625.149 273.95C626.089 273.49 627.119 273.26 628.239 273.26ZM646.199 273.29C647.619 273.29 648.859 273.6 649.919 274.22C650.999 274.84 651.799 275.62 652.319 276.56V273.56H655.079V290.36C655.079 291.86 654.759 293.19 654.119 294.35C653.479 295.53 652.559 296.45 651.359 297.11C650.179 297.77 648.799 298.1 647.219 298.1C645.059 298.1 643.259 297.59 641.819 296.57C640.379 295.55 639.529 294.16 639.269 292.4H641.969C642.269 293.4 642.889 294.2 643.829 294.8C644.769 295.42 645.899 295.73 647.219 295.73C648.719 295.73 649.939 295.26 650.879 294.32C651.839 293.38 652.319 292.06 652.319 290.36V286.91C651.779 287.87 650.979 288.67 649.919 289.31C648.859 289.95 647.619 290.27 646.199 290.27C644.739 290.27 643.409 289.91 642.209 289.19C641.029 288.47 640.099 287.46 639.419 286.16C638.739 284.86 638.399 283.38 638.399 281.72C638.399 280.04 638.739 278.57 639.419 277.31C640.099 276.03 641.029 275.04 642.209 274.34C643.409 273.64 644.739 273.29 646.199 273.29ZM652.319 281.75C652.319 280.51 652.069 279.43 651.569 278.51C651.069 277.59 650.389 276.89 649.529 276.41C648.689 275.91 647.759 275.66 646.739 275.66C645.719 275.66 644.789 275.9 643.949 276.38C643.109 276.86 642.439 277.56 641.939 278.48C641.439 279.4 641.189 280.48 641.189 281.72C641.189 282.98 641.439 284.08 641.939 285.02C642.439 285.94 643.109 286.65 643.949 287.15C644.789 287.63 645.719 287.87 646.739 287.87C647.759 287.87 648.689 287.63 649.529 287.15C650.389 286.65 651.069 285.94 651.569 285.02C652.069 284.08 652.319 282.99 652.319 281.75ZM666.67 281.72C666.67 280.04 667.01 278.57 667.69 277.31C668.37 276.03 669.3 275.04 670.48 274.34C671.68 273.64 673.01 273.29 674.47 273.29C675.91 273.29 677.16 273.6 678.22 274.22C679.28 274.84 680.07 275.62 680.59 276.56V273.56H683.35V290H680.59V286.94C680.05 287.9 679.24 288.7 678.16 289.34C677.1 289.96 675.86 290.27 674.44 290.27C672.98 290.27 671.66 289.91 670.48 289.19C669.3 288.47 668.37 287.46 667.69 286.16C667.01 284.86 666.67 283.38 666.67 281.72ZM680.59 281.75C680.59 280.51 680.34 279.43 679.84 278.51C679.34 277.59 678.66 276.89 677.8 276.41C676.96 275.91 676.03 275.66 675.01 275.66C673.99 275.66 673.06 275.9 672.22 276.38C671.38 276.86 670.71 277.56 670.21 278.48C669.71 279.4 669.46 280.48 669.46 281.72C669.46 282.98 669.71 284.08 670.21 285.02C670.71 285.94 671.38 286.65 672.22 287.15C673.06 287.63 673.99 287.87 675.01 287.87C676.03 287.87 676.96 287.63 677.8 287.15C678.66 286.65 679.34 285.94 679.84 285.02C680.34 284.08 680.59 282.99 680.59 281.75ZM695.974 273.26C697.974 273.26 699.594 273.87 700.834 275.09C702.074 276.29 702.694 278.03 702.694 280.31V290H699.994V280.7C699.994 279.06 699.584 277.81 698.764 276.95C697.944 276.07 696.824 275.63 695.404 275.63C693.964 275.63 692.814 276.08 691.954 276.98C691.114 277.88 690.694 279.19 690.694 280.91V290H687.964V273.56H690.694V275.9C691.234 275.06 691.964 274.41 692.884 273.95C693.824 273.49 694.854 273.26 695.974 273.26ZM706.133 281.72C706.133 280.04 706.473 278.57 707.153 277.31C707.833 276.03 708.763 275.04 709.943 274.34C711.143 273.64 712.483 273.29 713.963 273.29C715.243 273.29 716.433 273.59 717.533 274.19C718.633 274.77 719.473 275.54 720.053 276.5V267.8H722.813V290H720.053V286.91C719.513 287.89 718.713 288.7 717.653 289.34C716.593 289.96 715.353 290.27 713.933 290.27C712.473 290.27 711.143 289.91 709.943 289.19C708.763 288.47 707.833 287.46 707.153 286.16C706.473 284.86 706.133 283.38 706.133 281.72ZM720.053 281.75C720.053 280.51 719.803 279.43 719.303 278.51C718.803 277.59 718.123 276.89 717.263 276.41C716.423 275.91 715.493 275.66 714.473 275.66C713.453 275.66 712.523 275.9 711.683 276.38C710.843 276.86 710.173 277.56 709.673 278.48C709.173 279.4 708.923 280.48 708.923 281.72C708.923 282.98 709.173 284.08 709.673 285.02C710.173 285.94 710.843 286.65 711.683 287.15C712.523 287.63 713.453 287.87 714.473 287.87C715.493 287.87 716.423 287.63 717.263 287.15C718.123 286.65 718.803 285.94 719.303 285.02C719.803 284.08 720.053 282.99 720.053 281.75ZM738.155 276.62C738.715 275.64 739.535 274.84 740.615 274.22C741.695 273.6 742.925 273.29 744.305 273.29C745.785 273.29 747.115 273.64 748.295 274.34C749.475 275.04 750.405 276.03 751.085 277.31C751.765 278.57 752.105 280.04 752.105 281.72C752.105 283.38 751.765 284.86 751.085 286.16C750.405 287.46 749.465 288.47 748.265 289.19C747.085 289.91 745.765 290.27 744.305 290.27C742.885 290.27 741.635 289.96 740.555 289.34C739.495 288.72 738.695 287.93 738.155 286.97V290H735.425V267.8H738.155V276.62ZM749.315 281.72C749.315 280.48 749.065 279.4 748.565 278.48C748.065 277.56 747.385 276.86 746.525 276.38C745.685 275.9 744.755 275.66 743.735 275.66C742.735 275.66 741.805 275.91 740.945 276.41C740.105 276.89 739.425 277.6 738.905 278.54C738.405 279.46 738.155 280.53 738.155 281.75C738.155 282.99 738.405 284.08 738.905 285.02C739.425 285.94 740.105 286.65 740.945 287.15C741.805 287.63 742.735 287.87 743.735 287.87C744.755 287.87 745.685 287.63 746.525 287.15C747.385 286.65 748.065 285.94 748.565 285.02C749.065 284.08 749.315 282.98 749.315 281.72ZM770.698 281.15C770.698 281.67 770.668 282.22 770.608 282.8H757.468C757.568 284.42 758.118 285.69 759.118 286.61C760.138 287.51 761.368 287.96 762.808 287.96C763.988 287.96 764.968 287.69 765.748 287.15C766.548 286.59 767.108 285.85 767.428 284.93H770.368C769.928 286.51 769.048 287.8 767.728 288.8C766.408 289.78 764.768 290.27 762.808 290.27C761.248 290.27 759.848 289.92 758.608 289.22C757.388 288.52 756.428 287.53 755.728 286.25C755.028 284.95 754.678 283.45 754.678 281.75C754.678 280.05 755.018 278.56 755.698 277.28C756.378 276 757.328 275.02 758.548 274.34C759.788 273.64 761.208 273.29 762.808 273.29C764.368 273.29 765.748 273.63 766.948 274.31C768.148 274.99 769.068 275.93 769.708 277.13C770.368 278.31 770.698 279.65 770.698 281.15ZM767.878 280.58C767.878 279.54 767.648 278.65 767.188 277.91C766.728 277.15 766.098 276.58 765.298 276.2C764.518 275.8 763.648 275.6 762.688 275.6C761.308 275.6 760.128 276.04 759.148 276.92C758.188 277.8 757.638 279.02 757.498 280.58H767.878ZM775.712 270.89C775.192 270.89 774.752 270.71 774.392 270.35C774.032 269.99 773.852 269.55 773.852 269.03C773.852 268.51 774.032 268.07 774.392 267.71C774.752 267.35 775.192 267.17 775.712 267.17C776.212 267.17 776.632 267.35 776.972 267.71C777.332 268.07 777.512 268.51 777.512 269.03C777.512 269.55 777.332 269.99 776.972 270.35C776.632 270.71 776.212 270.89 775.712 270.89ZM777.032 273.56V290H774.302V273.56H777.032ZM789.694 273.26C791.694 273.26 793.314 273.87 794.554 275.09C795.794 276.29 796.414 278.03 796.414 280.31V290H793.714V280.7C793.714 279.06 793.304 277.81 792.484 276.95C791.664 276.07 790.544 275.63 789.124 275.63C787.684 275.63 786.534 276.08 785.674 276.98C784.834 277.88 784.414 279.19 784.414 280.91V290H781.684V273.56H784.414V275.9C784.954 275.06 785.684 274.41 786.604 273.95C787.544 273.49 788.574 273.26 789.694 273.26ZM807.654 273.29C809.074 273.29 810.314 273.6 811.374 274.22C812.454 274.84 813.254 275.62 813.774 276.56V273.56H816.534V290.36C816.534 291.86 816.214 293.19 815.574 294.35C814.934 295.53 814.014 296.45 812.814 297.11C811.634 297.77 810.254 298.1 808.674 298.1C806.514 298.1 804.714 297.59 803.274 296.57C801.834 295.55 800.984 294.16 800.724 292.4H803.424C803.724 293.4 804.344 294.2 805.284 294.8C806.224 295.42 807.354 295.73 808.674 295.73C810.174 295.73 811.394 295.26 812.334 294.32C813.294 293.38 813.774 292.06 813.774 290.36V286.91C813.234 287.87 812.434 288.67 811.374 289.31C810.314 289.95 809.074 290.27 807.654 290.27C806.194 290.27 804.864 289.91 803.664 289.19C802.484 288.47 801.554 287.46 800.874 286.16C800.194 284.86 799.854 283.38 799.854 281.72C799.854 280.04 800.194 278.57 800.874 277.31C801.554 276.03 802.484 275.04 803.664 274.34C804.864 273.64 806.194 273.29 807.654 273.29ZM813.774 281.75C813.774 280.51 813.524 279.43 813.024 278.51C812.524 277.59 811.844 276.89 810.984 276.41C810.144 275.91 809.214 275.66 808.194 275.66C807.174 275.66 806.244 275.9 805.404 276.38C804.564 276.86 803.894 277.56 803.394 278.48C802.894 279.4 802.644 280.48 802.644 281.72C802.644 282.98 802.894 284.08 803.394 285.02C803.894 285.94 804.564 286.65 805.404 287.15C806.244 287.63 807.174 287.87 808.194 287.87C809.214 287.87 810.144 287.63 810.984 287.15C811.844 286.65 812.524 285.94 813.024 285.02C813.524 284.08 813.774 282.99 813.774 281.75ZM828.125 281.72C828.125 280.04 828.465 278.57 829.145 277.31C829.825 276.03 830.755 275.04 831.935 274.34C833.135 273.64 834.465 273.29 835.925 273.29C837.365 273.29 838.615 273.6 839.675 274.22C840.735 274.84 841.525 275.62 842.045 276.56V273.56H844.805V290H842.045V286.94C841.505 287.9 840.695 288.7 839.615 289.34C838.555 289.96 837.315 290.27 835.895 290.27C834.435 290.27 833.115 289.91 831.935 289.19C830.755 288.47 829.825 287.46 829.145 286.16C828.465 284.86 828.125 283.38 828.125 281.72ZM842.045 281.75C842.045 280.51 841.795 279.43 841.295 278.51C840.795 277.59 840.115 276.89 839.255 276.41C838.415 275.91 837.485 275.66 836.465 275.66C835.445 275.66 834.515 275.9 833.675 276.38C832.835 276.86 832.165 277.56 831.665 278.48C831.165 279.4 830.915 280.48 830.915 281.72C830.915 282.98 831.165 284.08 831.665 285.02C832.165 285.94 832.835 286.65 833.675 287.15C834.515 287.63 835.445 287.87 836.465 287.87C837.485 287.87 838.415 287.63 839.255 287.15C840.115 286.65 840.795 285.94 841.295 285.02C841.795 284.08 842.045 282.99 842.045 281.75ZM852.149 276.23C852.629 275.29 853.309 274.56 854.189 274.04C855.089 273.52 856.179 273.26 857.459 273.26V276.08H856.739C853.679 276.08 852.149 277.74 852.149 281.06V290H849.419V273.56H852.149V276.23ZM867.78 290.27C866.24 290.27 864.84 289.92 863.58 289.22C862.34 288.52 861.36 287.53 860.64 286.25C859.94 284.95 859.59 283.45 859.59 281.75C859.59 280.07 859.95 278.59 860.67 277.31C861.41 276.01 862.41 275.02 863.67 274.34C864.93 273.64 866.34 273.29 867.9 273.29C869.46 273.29 870.87 273.64 872.13 274.34C873.39 275.02 874.38 276 875.1 277.28C875.84 278.56 876.21 280.05 876.21 281.75C876.21 283.45 875.83 284.95 875.07 286.25C874.33 287.53 873.32 288.52 872.04 289.22C870.76 289.92 869.34 290.27 867.78 290.27ZM867.78 287.87C868.76 287.87 869.68 287.64 870.54 287.18C871.4 286.72 872.09 286.03 872.61 285.11C873.15 284.19 873.42 283.07 873.42 281.75C873.42 280.43 873.16 279.31 872.64 278.39C872.12 277.47 871.44 276.79 870.6 276.35C869.76 275.89 868.85 275.66 867.87 275.66C866.87 275.66 865.95 275.89 865.11 276.35C864.29 276.79 863.63 277.47 863.13 278.39C862.63 279.31 862.38 280.43 862.38 281.75C862.38 283.09 862.62 284.22 863.1 285.14C863.6 286.06 864.26 286.75 865.08 287.21C865.9 287.65 866.8 287.87 867.78 287.87ZM894.38 273.56V290H891.65V287.57C891.13 288.41 890.4 289.07 889.46 289.55C888.54 290.01 887.52 290.24 886.4 290.24C885.12 290.24 883.97 289.98 882.95 289.46C881.93 288.92 881.12 288.12 880.52 287.06C879.94 286 879.65 284.71 879.65 283.19V273.56H882.35V282.83C882.35 284.45 882.76 285.7 883.58 286.58C884.4 287.44 885.52 287.87 886.94 287.87C888.4 287.87 889.55 287.42 890.39 286.52C891.23 285.62 891.65 284.31 891.65 282.59V273.56H894.38ZM906.999 273.26C908.999 273.26 910.619 273.87 911.859 275.09C913.099 276.29 913.719 278.03 913.719 280.31V290H911.019V280.7C911.019 279.06 910.609 277.81 909.789 276.95C908.969 276.07 907.849 275.63 906.429 275.63C904.989 275.63 903.839 276.08 902.979 276.98C902.139 277.88 901.719 279.19 901.719 280.91V290H898.989V273.56H901.719V275.9C902.259 275.06 902.989 274.41 903.909 273.95C904.849 273.49 905.879 273.26 906.999 273.26ZM917.159 281.72C917.159 280.04 917.499 278.57 918.179 277.31C918.859 276.03 919.789 275.04 920.969 274.34C922.169 273.64 923.509 273.29 924.989 273.29C926.269 273.29 927.459 273.59 928.559 274.19C929.659 274.77 930.499 275.54 931.079 276.5V267.8H933.839V290H931.079V286.91C930.539 287.89 929.739 288.7 928.679 289.34C927.619 289.96 926.379 290.27 924.959 290.27C923.499 290.27 922.169 289.91 920.969 289.19C919.789 288.47 918.859 287.46 918.179 286.16C917.499 284.86 917.159 283.38 917.159 281.72ZM931.079 281.75C931.079 280.51 930.829 279.43 930.329 278.51C929.829 277.59 929.149 276.89 928.289 276.41C927.449 275.91 926.519 275.66 925.499 275.66C924.479 275.66 923.549 275.9 922.709 276.38C921.869 276.86 921.199 277.56 920.699 278.48C920.199 279.4 919.949 280.48 919.949 281.72C919.949 282.98 920.199 284.08 920.699 285.02C921.199 285.94 921.869 286.65 922.709 287.15C923.549 287.63 924.479 287.87 925.499 287.87C926.519 287.87 927.449 287.63 928.289 287.15C929.149 286.65 929.829 285.94 930.329 285.02C930.829 284.08 931.079 282.99 931.079 281.75ZM608.121 321.59C608.661 320.65 609.461 319.87 610.521 319.25C611.601 318.61 612.851 318.29 614.271 318.29C615.731 318.29 617.051 318.64 618.231 319.34C619.431 320.04 620.371 321.03 621.051 322.31C621.731 323.57 622.071 325.04 622.071 326.72C622.071 328.38 621.731 329.86 621.051 331.16C620.371 332.46 619.431 333.47 618.231 334.19C617.051 334.91 615.731 335.27 614.271 335.27C612.871 335.27 611.631 334.96 610.551 334.34C609.491 333.7 608.681 332.91 608.121 331.97V342.8H605.391V318.56H608.121V321.59ZM619.281 326.72C619.281 325.48 619.031 324.4 618.531 323.48C618.031 322.56 617.351 321.86 616.491 321.38C615.651 320.9 614.721 320.66 613.701 320.66C612.701 320.66 611.771 320.91 610.911 321.41C610.071 321.89 609.391 322.6 608.871 323.54C608.371 324.46 608.121 325.53 608.121 326.75C608.121 327.99 608.371 329.08 608.871 330.02C609.391 330.94 610.071 331.65 610.911 332.15C611.771 332.63 612.701 332.87 613.701 332.87C614.721 332.87 615.651 332.63 616.491 332.15C617.351 331.65 618.031 330.94 618.531 330.02C619.031 329.08 619.281 327.98 619.281 326.72ZM640.664 326.15C640.664 326.67 640.634 327.22 640.574 327.8H627.434C627.534 329.42 628.084 330.69 629.084 331.61C630.104 332.51 631.334 332.96 632.774 332.96C633.954 332.96 634.934 332.69 635.714 332.15C636.514 331.59 637.074 330.85 637.394 329.93H640.334C639.894 331.51 639.014 332.8 637.694 333.8C636.374 334.78 634.734 335.27 632.774 335.27C631.214 335.27 629.814 334.92 628.574 334.22C627.354 333.52 626.394 332.53 625.694 331.25C624.994 329.95 624.644 328.45 624.644 326.75C624.644 325.05 624.984 323.56 625.664 322.28C626.344 321 627.294 320.02 628.514 319.34C629.754 318.64 631.174 318.29 632.774 318.29C634.334 318.29 635.714 318.63 636.914 319.31C638.114 319.99 639.034 320.93 639.674 322.13C640.334 323.31 640.664 324.65 640.664 326.15ZM637.844 325.58C637.844 324.54 637.614 323.65 637.154 322.91C636.694 322.15 636.064 321.58 635.264 321.2C634.484 320.8 633.614 320.6 632.654 320.6C631.274 320.6 630.094 321.04 629.114 321.92C628.154 322.8 627.604 324.02 627.464 325.58H637.844ZM651.437 335.27C649.897 335.27 648.497 334.92 647.237 334.22C645.997 333.52 645.017 332.53 644.297 331.25C643.597 329.95 643.247 328.45 643.247 326.75C643.247 325.07 643.607 323.59 644.327 322.31C645.067 321.01 646.067 320.02 647.327 319.34C648.587 318.64 649.997 318.29 651.557 318.29C653.117 318.29 654.527 318.64 655.787 319.34C657.047 320.02 658.037 321 658.757 322.28C659.497 323.56 659.867 325.05 659.867 326.75C659.867 328.45 659.487 329.95 658.727 331.25C657.987 332.53 656.977 333.52 655.697 334.22C654.417 334.92 652.997 335.27 651.437 335.27ZM651.437 332.87C652.417 332.87 653.337 332.64 654.197 332.18C655.057 331.72 655.747 331.03 656.267 330.11C656.807 329.19 657.077 328.07 657.077 326.75C657.077 325.43 656.817 324.31 656.297 323.39C655.777 322.47 655.097 321.79 654.257 321.35C653.417 320.89 652.507 320.66 651.527 320.66C650.527 320.66 649.607 320.89 648.767 321.35C647.947 321.79 647.287 322.47 646.787 323.39C646.287 324.31 646.037 325.43 646.037 326.75C646.037 328.09 646.277 329.22 646.757 330.14C647.257 331.06 647.917 331.75 648.737 332.21C649.557 332.65 650.457 332.87 651.437 332.87ZM666.187 321.59C666.727 320.65 667.527 319.87 668.587 319.25C669.667 318.61 670.917 318.29 672.337 318.29C673.797 318.29 675.117 318.64 676.297 319.34C677.497 320.04 678.437 321.03 679.117 322.31C679.797 323.57 680.137 325.04 680.137 326.72C680.137 328.38 679.797 329.86 679.117 331.16C678.437 332.46 677.497 333.47 676.297 334.19C675.117 334.91 673.797 335.27 672.337 335.27C670.937 335.27 669.697 334.96 668.617 334.34C667.557 333.7 666.747 332.91 666.187 331.97V342.8H663.457V318.56H666.187V321.59ZM677.347 326.72C677.347 325.48 677.097 324.4 676.597 323.48C676.097 322.56 675.417 321.86 674.557 321.38C673.717 320.9 672.787 320.66 671.767 320.66C670.767 320.66 669.837 320.91 668.977 321.41C668.137 321.89 667.457 322.6 666.937 323.54C666.437 324.46 666.187 325.53 666.187 326.75C666.187 327.99 666.437 329.08 666.937 330.02C667.457 330.94 668.137 331.65 668.977 332.15C669.837 332.63 670.767 332.87 671.767 332.87C672.787 332.87 673.717 332.63 674.557 332.15C675.417 331.65 676.097 330.94 676.597 330.02C677.097 329.08 677.347 327.98 677.347 326.72ZM686.46 312.8V335H683.73V312.8H686.46ZM706.113 326.15C706.113 326.67 706.083 327.22 706.023 327.8H692.883C692.983 329.42 693.533 330.69 694.533 331.61C695.553 332.51 696.783 332.96 698.223 332.96C699.403 332.96 700.383 332.69 701.163 332.15C701.963 331.59 702.523 330.85 702.843 329.93H705.783C705.343 331.51 704.463 332.8 703.143 333.8C701.823 334.78 700.183 335.27 698.223 335.27C696.663 335.27 695.263 334.92 694.023 334.22C692.803 333.52 691.843 332.53 691.143 331.25C690.443 329.95 690.093 328.45 690.093 326.75C690.093 325.05 690.433 323.56 691.113 322.28C691.793 321 692.743 320.02 693.963 319.34C695.203 318.64 696.623 318.29 698.223 318.29C699.783 318.29 701.163 318.63 702.363 319.31C703.563 319.99 704.483 320.93 705.123 322.13C705.783 323.31 706.113 324.65 706.113 326.15ZM703.293 325.58C703.293 324.54 703.063 323.65 702.603 322.91C702.143 322.15 701.513 321.58 700.713 321.2C699.933 320.8 699.063 320.6 698.103 320.6C696.723 320.6 695.543 321.04 694.563 321.92C693.603 322.8 693.053 324.02 692.913 325.58H703.293ZM715.057 313.82C717.037 313.82 718.637 314.38 719.857 315.5C721.077 316.62 721.687 318.12 721.687 320C721.687 322.1 721.037 323.66 719.737 324.68C718.437 325.68 716.677 326.18 714.457 326.18L714.367 329.03H711.997L711.877 324.29H712.747C714.727 324.29 716.277 323.99 717.397 323.39C718.517 322.79 719.077 321.66 719.077 320C719.077 318.8 718.717 317.85 717.997 317.15C717.277 316.45 716.307 316.1 715.087 316.1C713.847 316.1 712.867 316.44 712.147 317.12C711.447 317.78 711.097 318.69 711.097 319.85H708.517C708.517 318.65 708.787 317.6 709.327 316.7C709.867 315.78 710.627 315.07 711.607 314.57C712.607 314.07 713.757 313.82 715.057 313.82ZM713.167 335.18C712.647 335.18 712.207 335 711.847 334.64C711.487 334.28 711.307 333.84 711.307 333.32C711.307 332.8 711.487 332.36 711.847 332C712.207 331.64 712.647 331.46 713.167 331.46C713.667 331.46 714.087 331.64 714.427 332C714.787 332.36 714.967 332.8 714.967 333.32C714.967 333.84 714.787 334.28 714.427 334.64C714.087 335 713.667 335.18 713.167 335.18Z" fill="black"/>
<circle cx="720.437" cy="440.41" r="30.4098" fill="#221FBC"/>
<circle cx="969.185" cy="440.533" r="38.0328" stroke="#221FBC" stroke-width="3"/>
<circle cx="651.668" cy="440.631" r="25.8689" transform="rotate(180 651.668 440.631)" stroke="#221FBC" stroke-width="3"/>
<circle cx="878.563" cy="440.508" r="34.9918" transform="rotate(180 878.563 440.508)" stroke="#221FBC" stroke-width="3"/>
<circle cx="589.03" cy="440.672" r="22.8279" transform="rotate(180 589.03 440.672)" stroke="#221FBC" stroke-width="3"/>
<circle cx="795.241" cy="440.549" r="31.9508" transform="rotate(180 795.241 440.549)" stroke="#221FBC" stroke-width="3"/>
<path d="M505.403 440.232C505.403 429.626 514.227 420.965 525.19 420.965C536.153 420.965 544.977 429.626 544.977 440.232C544.977 450.839 536.153 459.5 525.19 459.5C514.227 459.5 505.403 450.839 505.403 440.232Z" stroke="#221FBC" stroke-width="3"/>
<path d="M453.102 440.199C453.102 431.231 460.564 423.898 469.848 423.898C479.131 423.898 486.594 431.231 486.594 440.199C486.594 449.167 479.131 456.5 469.848 456.5C460.564 456.5 453.102 449.167 453.102 440.199Z" stroke="#221FBC" stroke-width="3"/>
<path d="M400.801 440.166C400.801 432.836 406.902 426.832 414.506 426.832C422.11 426.832 428.211 432.836 428.211 440.166C428.211 447.495 422.11 453.5 414.506 453.5C406.902 453.5 400.801 447.495 400.801 440.166Z" stroke="#221FBC" stroke-width="3"/>
<path d="M348.5 440.133C348.5 434.442 353.24 429.765 359.164 429.765C365.089 429.765 369.828 434.442 369.828 440.133C369.828 445.824 365.089 450.5 359.164 450.5C353.24 450.5 348.5 445.824 348.5 440.133Z" stroke="#221FBC" stroke-width="3"/>
<path d="M356.255 526H353.894V510.346L349.158 512.086V509.953L355.887 507.427H356.255V526ZM420.392 526H408.28V524.311L414.679 517.202C415.627 516.127 416.278 515.255 416.634 514.587C416.998 513.91 417.18 513.211 417.18 512.492C417.18 511.527 416.888 510.736 416.304 510.118C415.72 509.5 414.941 509.191 413.968 509.191C412.8 509.191 411.89 509.525 411.238 510.194C410.595 510.854 410.273 511.777 410.273 512.962H407.925C407.925 511.26 408.471 509.885 409.562 508.836C410.663 507.786 412.131 507.261 413.968 507.261C415.686 507.261 417.044 507.714 418.043 508.62C419.042 509.517 419.541 510.715 419.541 512.213C419.541 514.032 418.382 516.199 416.062 518.713L411.111 524.083H420.392V526ZM471.439 515.615H473.204C474.313 515.598 475.185 515.306 475.819 514.739C476.454 514.172 476.771 513.406 476.771 512.441C476.771 510.274 475.692 509.191 473.534 509.191C472.519 509.191 471.706 509.483 471.097 510.067C470.496 510.643 470.195 511.409 470.195 512.365H467.847C467.847 510.901 468.38 509.686 469.446 508.721C470.521 507.748 471.884 507.261 473.534 507.261C475.278 507.261 476.645 507.723 477.635 508.645C478.625 509.568 479.12 510.85 479.12 512.492C479.12 513.296 478.858 514.075 478.333 514.828C477.817 515.581 477.11 516.144 476.213 516.516C477.229 516.838 478.011 517.371 478.562 518.116C479.12 518.861 479.399 519.771 479.399 520.845C479.399 522.504 478.858 523.82 477.774 524.794C476.691 525.767 475.282 526.254 473.547 526.254C471.812 526.254 470.398 525.784 469.307 524.844C468.223 523.905 467.682 522.665 467.682 521.125H470.043C470.043 522.098 470.36 522.877 470.995 523.461C471.63 524.045 472.48 524.337 473.547 524.337C474.681 524.337 475.549 524.04 476.149 523.448C476.75 522.856 477.051 522.005 477.051 520.896C477.051 519.821 476.721 518.996 476.061 518.421C475.4 517.845 474.448 517.549 473.204 517.532H471.439V515.615ZM531.234 519.792H533.799V521.709H531.234V526H528.873V521.709H520.456V520.325L528.733 507.515H531.234V519.792ZM523.122 519.792H528.873V510.727L528.594 511.235L523.122 519.792ZM588.592 516.732L589.531 507.515H599.002V509.686H591.524L590.966 514.726C591.871 514.193 592.9 513.927 594.051 513.927C595.735 513.927 597.072 514.485 598.062 515.602C599.053 516.711 599.548 518.213 599.548 520.109C599.548 522.013 599.032 523.516 597.999 524.616C596.975 525.708 595.54 526.254 593.695 526.254C592.062 526.254 590.729 525.801 589.696 524.895C588.664 523.99 588.076 522.737 587.932 521.137H590.153C590.297 522.195 590.674 522.995 591.283 523.537C591.893 524.07 592.697 524.337 593.695 524.337C594.787 524.337 595.642 523.964 596.26 523.219C596.886 522.475 597.199 521.446 597.199 520.135C597.199 518.899 596.861 517.909 596.184 517.164C595.515 516.411 594.622 516.034 593.505 516.034C592.481 516.034 591.677 516.258 591.093 516.707L590.471 517.215L588.592 516.732ZM656.474 507.503V509.496H656.042C654.214 509.53 652.758 510.071 651.675 511.121C650.591 512.17 649.965 513.647 649.796 515.552C650.769 514.434 652.098 513.876 653.782 513.876C655.39 513.876 656.673 514.443 657.629 515.577C658.594 516.711 659.076 518.175 659.076 519.969C659.076 521.874 658.556 523.397 657.515 524.54C656.482 525.682 655.094 526.254 653.351 526.254C651.582 526.254 650.147 525.577 649.047 524.222C647.947 522.86 647.396 521.108 647.396 518.967V518.065C647.396 514.663 648.12 512.065 649.567 510.27C651.023 508.468 653.186 507.545 656.055 507.503H656.474ZM653.389 515.831C652.585 515.831 651.844 516.072 651.167 516.554C650.49 517.037 650.02 517.642 649.758 518.37V519.233C649.758 520.757 650.101 521.984 650.786 522.915C651.472 523.846 652.326 524.311 653.351 524.311C654.409 524.311 655.238 523.922 655.839 523.143C656.448 522.365 656.753 521.345 656.753 520.084C656.753 518.814 656.444 517.79 655.826 517.011C655.217 516.224 654.404 515.831 653.389 515.831ZM725.384 508.836L717.729 526H715.266L722.896 509.445H712.892V507.515H725.384V508.836ZM803.752 512.34C803.752 513.262 803.507 514.083 803.016 514.802C802.533 515.522 801.877 516.085 801.048 516.491C802.013 516.906 802.774 517.511 803.333 518.306C803.9 519.102 804.184 520.003 804.184 521.01C804.184 522.61 803.642 523.884 802.559 524.832C801.484 525.78 800.066 526.254 798.306 526.254C796.528 526.254 795.102 525.78 794.027 524.832C792.961 523.875 792.428 522.602 792.428 521.01C792.428 520.012 792.699 519.11 793.24 518.306C793.79 517.502 794.548 516.893 795.513 516.478C794.692 516.072 794.044 515.509 793.57 514.79C793.096 514.07 792.859 513.254 792.859 512.34C792.859 510.782 793.359 509.547 794.357 508.633C795.356 507.719 796.672 507.261 798.306 507.261C799.931 507.261 801.243 507.719 802.241 508.633C803.248 509.547 803.752 510.782 803.752 512.34ZM801.835 520.96C801.835 519.927 801.505 519.085 800.845 518.433C800.193 517.782 799.338 517.456 798.28 517.456C797.222 517.456 796.372 517.777 795.729 518.421C795.094 519.064 794.776 519.91 794.776 520.96C794.776 522.009 795.085 522.834 795.703 523.435C796.329 524.036 797.197 524.337 798.306 524.337C799.406 524.337 800.269 524.036 800.896 523.435C801.522 522.826 801.835 522.001 801.835 520.96ZM798.306 509.191C797.383 509.191 796.634 509.479 796.059 510.054C795.492 510.622 795.208 511.396 795.208 512.378C795.208 513.317 795.487 514.079 796.046 514.663C796.613 515.238 797.366 515.526 798.306 515.526C799.245 515.526 799.994 515.238 800.553 514.663C801.12 514.079 801.403 513.317 801.403 512.378C801.403 511.438 801.111 510.672 800.527 510.08C799.943 509.487 799.203 509.191 798.306 509.191ZM887.084 517.875C886.593 518.459 886.005 518.928 885.319 519.284C884.642 519.639 883.897 519.817 883.085 519.817C882.019 519.817 881.088 519.555 880.292 519.03C879.505 518.505 878.896 517.769 878.464 516.821C878.032 515.865 877.816 514.811 877.816 513.66C877.816 512.424 878.049 511.311 878.515 510.321C878.989 509.331 879.657 508.573 880.521 508.049C881.384 507.524 882.391 507.261 883.542 507.261C885.37 507.261 886.809 507.947 887.858 509.318C888.916 510.681 889.445 512.543 889.445 514.904V515.59C889.445 519.187 888.734 521.815 887.312 523.473C885.891 525.124 883.745 525.97 880.876 526.012H880.419V524.032H880.914C882.852 523.998 884.342 523.495 885.383 522.521C886.424 521.539 886.991 519.991 887.084 517.875ZM883.466 517.875C884.253 517.875 884.977 517.634 885.637 517.151C886.305 516.669 886.792 516.072 887.097 515.361V514.422C887.097 512.881 886.762 511.629 886.094 510.664C885.425 509.699 884.579 509.217 883.555 509.217C882.522 509.217 881.693 509.614 881.066 510.41C880.44 511.197 880.127 512.238 880.127 513.533C880.127 514.794 880.427 515.835 881.028 516.656C881.638 517.469 882.45 517.875 883.466 517.875ZM964.894 526H962.532V510.346L957.797 512.086V509.953L964.525 507.427H964.894V526ZM983.365 518.116C983.365 520.867 982.896 522.911 981.956 524.248C981.017 525.585 979.548 526.254 977.551 526.254C975.579 526.254 974.119 525.602 973.171 524.299C972.223 522.987 971.732 521.032 971.698 518.433V515.298C971.698 512.581 972.168 510.562 973.107 509.242C974.047 507.922 975.52 507.261 977.525 507.261C979.514 507.261 980.979 507.9 981.918 509.178C982.857 510.448 983.34 512.412 983.365 515.069V518.116ZM981.017 514.904C981.017 512.915 980.737 511.468 980.179 510.562C979.62 509.648 978.736 509.191 977.525 509.191C976.324 509.191 975.448 509.644 974.897 510.55C974.347 511.455 974.064 512.847 974.047 514.726V518.484C974.047 520.482 974.335 521.958 974.91 522.915C975.494 523.863 976.374 524.337 977.551 524.337C978.71 524.337 979.569 523.888 980.128 522.991C980.695 522.094 980.991 520.68 981.017 518.751V514.904Z" fill="black"/>
<path d="M459.028 876.09L452.218 889.11V897H449.488V889.11L442.648 876.09H445.678L450.838 886.68L455.998 876.09H459.028ZM469.077 897.27C467.537 897.27 466.137 896.92 464.877 896.22C463.637 895.52 462.657 894.53 461.937 893.25C461.237 891.95 460.887 890.45 460.887 888.75C460.887 887.07 461.247 885.59 461.967 884.31C462.707 883.01 463.707 882.02 464.967 881.34C466.227 880.64 467.637 880.29 469.197 880.29C470.757 880.29 472.167 880.64 473.427 881.34C474.687 882.02 475.677 883 476.397 884.28C477.137 885.56 477.507 887.05 477.507 888.75C477.507 890.45 477.127 891.95 476.367 893.25C475.627 894.53 474.617 895.52 473.337 896.22C472.057 896.92 470.637 897.27 469.077 897.27ZM469.077 894.87C470.057 894.87 470.977 894.64 471.837 894.18C472.697 893.72 473.387 893.03 473.907 892.11C474.447 891.19 474.717 890.07 474.717 888.75C474.717 887.43 474.457 886.31 473.937 885.39C473.417 884.47 472.737 883.79 471.897 883.35C471.057 882.89 470.147 882.66 469.167 882.66C468.167 882.66 467.247 882.89 466.407 883.35C465.587 883.79 464.927 884.47 464.427 885.39C463.927 886.31 463.677 887.43 463.677 888.75C463.677 890.09 463.917 891.22 464.397 892.14C464.897 893.06 465.557 893.75 466.377 894.21C467.197 894.65 468.097 894.87 469.077 894.87ZM495.677 880.56V897H492.947V894.57C492.427 895.41 491.697 896.07 490.757 896.55C489.837 897.01 488.817 897.24 487.697 897.24C486.417 897.24 485.267 896.98 484.247 896.46C483.227 895.92 482.417 895.12 481.817 894.06C481.237 893 480.947 891.71 480.947 890.19V880.56H483.647V889.83C483.647 891.45 484.057 892.7 484.877 893.58C485.697 894.44 486.817 894.87 488.237 894.87C489.697 894.87 490.847 894.42 491.687 893.52C492.527 892.62 492.947 891.31 492.947 889.59V880.56H495.677ZM516.444 880.26C517.684 880.26 518.804 880.53 519.804 881.07C520.804 881.59 521.584 882.38 522.144 883.44C522.724 884.5 523.014 885.79 523.014 887.31V897H520.314V887.7C520.314 886.06 519.904 884.81 519.084 883.95C518.264 883.07 517.144 882.63 515.724 882.63C514.284 882.63 513.134 883.08 512.274 883.98C511.434 884.88 511.014 886.19 511.014 887.91V897H508.284V874.8H511.014V882.9C511.554 882.06 512.294 881.41 513.234 880.95C514.194 880.49 515.264 880.26 516.444 880.26ZM526.454 888.72C526.454 887.04 526.794 885.57 527.474 884.31C528.154 883.03 529.084 882.04 530.264 881.34C531.464 880.64 532.794 880.29 534.254 880.29C535.694 880.29 536.944 880.6 538.004 881.22C539.064 881.84 539.854 882.62 540.374 883.56V880.56H543.134V897H540.374V893.94C539.834 894.9 539.024 895.7 537.944 896.34C536.884 896.96 535.644 897.27 534.224 897.27C532.764 897.27 531.444 896.91 530.264 896.19C529.084 895.47 528.154 894.46 527.474 893.16C526.794 891.86 526.454 890.38 526.454 888.72ZM540.374 888.75C540.374 887.51 540.124 886.43 539.624 885.51C539.124 884.59 538.444 883.89 537.584 883.41C536.744 882.91 535.814 882.66 534.794 882.66C533.774 882.66 532.844 882.9 532.004 883.38C531.164 883.86 530.494 884.56 529.994 885.48C529.494 886.4 529.244 887.48 529.244 888.72C529.244 889.98 529.494 891.08 529.994 892.02C530.494 892.94 531.164 893.65 532.004 894.15C532.844 894.63 533.774 894.87 534.794 894.87C535.814 894.87 536.744 894.63 537.584 894.15C538.444 893.65 539.124 892.94 539.624 892.02C540.124 891.08 540.374 889.99 540.374 888.75ZM551.077 882.81V892.5C551.077 893.3 551.247 893.87 551.587 894.21C551.927 894.53 552.517 894.69 553.357 894.69H555.367V897H552.907C551.387 897 550.247 896.65 549.487 895.95C548.727 895.25 548.347 894.1 548.347 892.5V882.81H546.217V880.56H548.347V876.42H551.077V880.56H555.367V882.81H551.077ZM573.675 888.15C573.675 888.67 573.645 889.22 573.585 889.8H560.445C560.545 891.42 561.095 892.69 562.095 893.61C563.115 894.51 564.345 894.96 565.785 894.96C566.965 894.96 567.945 894.69 568.725 894.15C569.525 893.59 570.085 892.85 570.405 891.93H573.345C572.905 893.51 572.025 894.8 570.705 895.8C569.385 896.78 567.745 897.27 565.785 897.27C564.225 897.27 562.825 896.92 561.585 896.22C560.365 895.52 559.405 894.53 558.705 893.25C558.005 891.95 557.655 890.45 557.655 888.75C557.655 887.05 557.995 885.56 558.675 884.28C559.355 883 560.305 882.02 561.525 881.34C562.765 880.64 564.185 880.29 565.785 880.29C567.345 880.29 568.725 880.63 569.925 881.31C571.125 881.99 572.045 882.93 572.685 884.13C573.345 885.31 573.675 886.65 573.675 888.15ZM570.855 887.58C570.855 886.54 570.625 885.65 570.165 884.91C569.705 884.15 569.075 883.58 568.275 883.2C567.495 882.8 566.625 882.6 565.665 882.6C564.285 882.6 563.105 883.04 562.125 883.92C561.165 884.8 560.615 886.02 560.475 887.58H570.855ZM588.006 883.59C588.546 882.65 589.346 881.87 590.406 881.25C591.486 880.61 592.736 880.29 594.156 880.29C595.616 880.29 596.936 880.64 598.116 881.34C599.316 882.04 600.256 883.03 600.936 884.31C601.616 885.57 601.956 887.04 601.956 888.72C601.956 890.38 601.616 891.86 600.936 893.16C600.256 894.46 599.316 895.47 598.116 896.19C596.936 896.91 595.616 897.27 594.156 897.27C592.756 897.27 591.516 896.96 590.436 896.34C589.376 895.7 588.566 894.91 588.006 893.97V904.8H585.276V880.56H588.006V883.59ZM599.166 888.72C599.166 887.48 598.916 886.4 598.416 885.48C597.916 884.56 597.236 883.86 596.376 883.38C595.536 882.9 594.606 882.66 593.586 882.66C592.586 882.66 591.656 882.91 590.796 883.41C589.956 883.89 589.276 884.6 588.756 885.54C588.256 886.46 588.006 887.53 588.006 888.75C588.006 889.99 588.256 891.08 588.756 892.02C589.276 892.94 589.956 893.65 590.796 894.15C591.656 894.63 592.586 894.87 593.586 894.87C594.606 894.87 595.536 894.63 596.376 894.15C597.236 893.65 597.916 892.94 598.416 892.02C598.916 891.08 599.166 889.98 599.166 888.72ZM604.53 888.72C604.53 887.04 604.87 885.57 605.55 884.31C606.23 883.03 607.16 882.04 608.34 881.34C609.54 880.64 610.87 880.29 612.33 880.29C613.77 880.29 615.02 880.6 616.08 881.22C617.14 881.84 617.93 882.62 618.45 883.56V880.56H621.21V897H618.45V893.94C617.91 894.9 617.1 895.7 616.02 896.34C614.96 896.96 613.72 897.27 612.3 897.27C610.84 897.27 609.52 896.91 608.34 896.19C607.16 895.47 606.23 894.46 605.55 893.16C604.87 891.86 604.53 890.38 604.53 888.72ZM618.45 888.75C618.45 887.51 618.2 886.43 617.7 885.51C617.2 884.59 616.52 883.89 615.66 883.41C614.82 882.91 613.89 882.66 612.87 882.66C611.85 882.66 610.92 882.9 610.08 883.38C609.24 883.86 608.57 884.56 608.07 885.48C607.57 886.4 607.32 887.48 607.32 888.72C607.32 889.98 607.57 891.08 608.07 892.02C608.57 892.94 609.24 893.65 610.08 894.15C610.92 894.63 611.85 894.87 612.87 894.87C613.89 894.87 614.82 894.63 615.66 894.15C616.52 893.65 617.2 892.94 617.7 892.02C618.2 891.08 618.45 889.99 618.45 888.75ZM628.553 883.23C629.033 882.29 629.713 881.56 630.593 881.04C631.493 880.52 632.583 880.26 633.863 880.26V883.08H633.143C630.083 883.08 628.553 884.74 628.553 888.06V897H625.823V880.56H628.553V883.23ZM640.345 882.81V892.5C640.345 893.3 640.515 893.87 640.855 894.21C641.195 894.53 641.785 894.69 642.625 894.69H644.635V897H642.175C640.655 897 639.515 896.65 638.755 895.95C637.995 895.25 637.615 894.1 637.615 892.5V882.81H635.485V880.56H637.615V876.42H640.345V880.56H644.635V882.81H640.345ZM662.102 880.56L652.202 904.74H649.382L652.622 896.82L645.992 880.56H649.022L654.182 893.88L659.282 880.56H662.102ZM666.257 877.89C665.737 877.89 665.297 877.71 664.937 877.35C664.577 876.99 664.397 876.55 664.397 876.03C664.397 875.51 664.577 875.07 664.937 874.71C665.297 874.35 665.737 874.17 666.257 874.17C666.757 874.17 667.177 874.35 667.517 874.71C667.877 875.07 668.057 875.51 668.057 876.03C668.057 876.55 667.877 876.99 667.517 877.35C667.177 877.71 666.757 877.89 666.257 877.89ZM667.577 880.56V897H664.847V880.56H667.577ZM680.239 880.26C682.239 880.26 683.859 880.87 685.099 882.09C686.339 883.29 686.959 885.03 686.959 887.31V897H684.259V887.7C684.259 886.06 683.849 884.81 683.029 883.95C682.209 883.07 681.089 882.63 679.669 882.63C678.229 882.63 677.079 883.08 676.219 883.98C675.379 884.88 674.959 886.19 674.959 887.91V897H672.229V880.56H674.959V882.9C675.499 882.06 676.229 881.41 677.149 880.95C678.089 880.49 679.119 880.26 680.239 880.26ZM698.199 880.29C699.619 880.29 700.859 880.6 701.919 881.22C702.999 881.84 703.799 882.62 704.319 883.56V880.56H707.079V897.36C707.079 898.86 706.759 900.19 706.119 901.35C705.479 902.53 704.559 903.45 703.359 904.11C702.179 904.77 700.799 905.1 699.219 905.1C697.059 905.1 695.259 904.59 693.819 903.57C692.379 902.55 691.529 901.16 691.269 899.4H693.969C694.269 900.4 694.889 901.2 695.829 901.8C696.769 902.42 697.899 902.73 699.219 902.73C700.719 902.73 701.939 902.26 702.879 901.32C703.839 900.38 704.319 899.06 704.319 897.36V893.91C703.779 894.87 702.979 895.67 701.919 896.31C700.859 896.95 699.619 897.27 698.199 897.27C696.739 897.27 695.409 896.91 694.209 896.19C693.029 895.47 692.099 894.46 691.419 893.16C690.739 891.86 690.399 890.38 690.399 888.72C690.399 887.04 690.739 885.57 691.419 884.31C692.099 883.03 693.029 882.04 694.209 881.34C695.409 880.64 696.739 880.29 698.199 880.29ZM704.319 888.75C704.319 887.51 704.069 886.43 703.569 885.51C703.069 884.59 702.389 883.89 701.529 883.41C700.689 882.91 699.759 882.66 698.739 882.66C697.719 882.66 696.789 882.9 695.949 883.38C695.109 883.86 694.439 884.56 693.939 885.48C693.439 886.4 693.189 887.48 693.189 888.72C693.189 889.98 693.439 891.08 693.939 892.02C694.439 892.94 695.109 893.65 695.949 894.15C696.789 894.63 697.719 894.87 698.739 894.87C699.759 894.87 700.689 894.63 701.529 894.15C702.389 893.65 703.069 892.94 703.569 892.02C704.069 891.08 704.319 889.99 704.319 888.75ZM718.67 888.72C718.67 887.04 719.01 885.57 719.69 884.31C720.37 883.03 721.3 882.04 722.48 881.34C723.68 880.64 725.01 880.29 726.47 880.29C727.91 880.29 729.16 880.6 730.22 881.22C731.28 881.84 732.07 882.62 732.59 883.56V880.56H735.35V897H732.59V893.94C732.05 894.9 731.24 895.7 730.16 896.34C729.1 896.96 727.86 897.27 726.44 897.27C724.98 897.27 723.66 896.91 722.48 896.19C721.3 895.47 720.37 894.46 719.69 893.16C719.01 891.86 718.67 890.38 718.67 888.72ZM732.59 888.75C732.59 887.51 732.34 886.43 731.84 885.51C731.34 884.59 730.66 883.89 729.8 883.41C728.96 882.91 728.03 882.66 727.01 882.66C725.99 882.66 725.06 882.9 724.22 883.38C723.38 883.86 722.71 884.56 722.21 885.48C721.71 886.4 721.46 887.48 721.46 888.72C721.46 889.98 721.71 891.08 722.21 892.02C722.71 892.94 723.38 893.65 724.22 894.15C725.06 894.63 725.99 894.87 727.01 894.87C728.03 894.87 728.96 894.63 729.8 894.15C730.66 893.65 731.34 892.94 731.84 892.02C732.34 891.08 732.59 889.99 732.59 888.75ZM747.974 880.26C749.974 880.26 751.594 880.87 752.834 882.09C754.074 883.29 754.694 885.03 754.694 887.31V897H751.994V887.7C751.994 886.06 751.584 884.81 750.764 883.95C749.944 883.07 748.824 882.63 747.404 882.63C745.964 882.63 744.814 883.08 743.954 883.98C743.114 884.88 742.694 886.19 742.694 887.91V897H739.964V880.56H742.694V882.9C743.234 882.06 743.964 881.41 744.884 880.95C745.824 880.49 746.854 880.26 747.974 880.26ZM758.133 888.72C758.133 887.04 758.473 885.57 759.153 884.31C759.833 883.03 760.763 882.04 761.943 881.34C763.143 880.64 764.483 880.29 765.963 880.29C767.243 880.29 768.433 880.59 769.533 881.19C770.633 881.77 771.473 882.54 772.053 883.5V874.8H774.813V897H772.053V893.91C771.513 894.89 770.713 895.7 769.653 896.34C768.593 896.96 767.353 897.27 765.933 897.27C764.473 897.27 763.143 896.91 761.943 896.19C760.763 895.47 759.833 894.46 759.153 893.16C758.473 891.86 758.133 890.38 758.133 888.72ZM772.053 888.75C772.053 887.51 771.803 886.43 771.303 885.51C770.803 884.59 770.123 883.89 769.263 883.41C768.423 882.91 767.493 882.66 766.473 882.66C765.453 882.66 764.523 882.9 763.683 883.38C762.843 883.86 762.173 884.56 761.673 885.48C761.173 886.4 760.923 887.48 760.923 888.72C760.923 889.98 761.173 891.08 761.673 892.02C762.173 892.94 762.843 893.65 763.683 894.15C764.523 894.63 765.453 894.87 766.473 894.87C767.493 894.87 768.423 894.63 769.263 894.15C770.123 893.65 770.803 892.94 771.303 892.02C771.803 891.08 772.053 889.99 772.053 888.75ZM790.155 883.62C790.715 882.64 791.535 881.84 792.615 881.22C793.695 880.6 794.925 880.29 796.305 880.29C797.785 880.29 799.115 880.64 800.295 881.34C801.475 882.04 802.405 883.03 803.085 884.31C803.765 885.57 804.105 887.04 804.105 888.72C804.105 890.38 803.765 891.86 803.085 893.16C802.405 894.46 801.465 895.47 800.265 896.19C799.085 896.91 797.765 897.27 796.305 897.27C794.885 897.27 793.635 896.96 792.555 896.34C791.495 895.72 790.695 894.93 790.155 893.97V897H787.425V874.8H790.155V883.62ZM801.315 888.72C801.315 887.48 801.065 886.4 800.565 885.48C800.065 884.56 799.385 883.86 798.525 883.38C797.685 882.9 796.755 882.66 795.735 882.66C794.735 882.66 793.805 882.91 792.945 883.41C792.105 883.89 791.425 884.6 790.905 885.54C790.405 886.46 790.155 887.53 790.155 888.75C790.155 889.99 790.405 891.08 790.905 892.02C791.425 892.94 792.105 893.65 792.945 894.15C793.805 894.63 794.735 894.87 795.735 894.87C796.755 894.87 797.685 894.63 798.525 894.15C799.385 893.65 800.065 892.94 800.565 892.02C801.065 891.08 801.315 889.98 801.315 888.72ZM822.698 888.15C822.698 888.67 822.668 889.22 822.608 889.8H809.468C809.568 891.42 810.118 892.69 811.118 893.61C812.138 894.51 813.368 894.96 814.808 894.96C815.988 894.96 816.968 894.69 817.748 894.15C818.548 893.59 819.108 892.85 819.428 891.93H822.368C821.928 893.51 821.048 894.8 819.728 895.8C818.408 896.78 816.768 897.27 814.808 897.27C813.248 897.27 811.848 896.92 810.608 896.22C809.388 895.52 808.428 894.53 807.728 893.25C807.028 891.95 806.678 890.45 806.678 888.75C806.678 887.05 807.018 885.56 807.698 884.28C808.378 883 809.328 882.02 810.548 881.34C811.788 880.64 813.208 880.29 814.808 880.29C816.368 880.29 817.748 880.63 818.948 881.31C820.148 881.99 821.068 882.93 821.708 884.13C822.368 885.31 822.698 886.65 822.698 888.15ZM819.878 887.58C819.878 886.54 819.648 885.65 819.188 884.91C818.728 884.15 818.098 883.58 817.298 883.2C816.518 882.8 815.648 882.6 814.688 882.6C813.308 882.6 812.128 883.04 811.148 883.92C810.188 884.8 809.638 886.02 809.498 887.58H819.878ZM827.712 877.89C827.192 877.89 826.752 877.71 826.392 877.35C826.032 876.99 825.852 876.55 825.852 876.03C825.852 875.51 826.032 875.07 826.392 874.71C826.752 874.35 827.192 874.17 827.712 874.17C828.212 874.17 828.632 874.35 828.972 874.71C829.332 875.07 829.512 875.51 829.512 876.03C829.512 876.55 829.332 876.99 828.972 877.35C828.632 877.71 828.212 877.89 827.712 877.89ZM829.032 880.56V897H826.302V880.56H829.032ZM841.694 880.26C843.694 880.26 845.314 880.87 846.554 882.09C847.794 883.29 848.414 885.03 848.414 887.31V897H845.714V887.7C845.714 886.06 845.304 884.81 844.484 883.95C843.664 883.07 842.544 882.63 841.124 882.63C839.684 882.63 838.534 883.08 837.674 883.98C836.834 884.88 836.414 886.19 836.414 887.91V897H833.684V880.56H836.414V882.9C836.954 882.06 837.684 881.41 838.604 880.95C839.544 880.49 840.574 880.26 841.694 880.26ZM859.654 880.29C861.074 880.29 862.314 880.6 863.374 881.22C864.454 881.84 865.254 882.62 865.774 883.56V880.56H868.534V897.36C868.534 898.86 868.214 900.19 867.574 901.35C866.934 902.53 866.014 903.45 864.814 904.11C863.634 904.77 862.254 905.1 860.674 905.1C858.514 905.1 856.714 904.59 855.274 903.57C853.834 902.55 852.984 901.16 852.724 899.4H855.424C855.724 900.4 856.344 901.2 857.284 901.8C858.224 902.42 859.354 902.73 860.674 902.73C862.174 902.73 863.394 902.26 864.334 901.32C865.294 900.38 865.774 899.06 865.774 897.36V893.91C865.234 894.87 864.434 895.67 863.374 896.31C862.314 896.95 861.074 897.27 859.654 897.27C858.194 897.27 856.864 896.91 855.664 896.19C854.484 895.47 853.554 894.46 852.874 893.16C852.194 891.86 851.854 890.38 851.854 888.72C851.854 887.04 852.194 885.57 852.874 884.31C853.554 883.03 854.484 882.04 855.664 881.34C856.864 880.64 858.194 880.29 859.654 880.29ZM865.774 888.75C865.774 887.51 865.524 886.43 865.024 885.51C864.524 884.59 863.844 883.89 862.984 883.41C862.144 882.91 861.214 882.66 860.194 882.66C859.174 882.66 858.244 882.9 857.404 883.38C856.564 883.86 855.894 884.56 855.394 885.48C854.894 886.4 854.644 887.48 854.644 888.72C854.644 889.98 854.894 891.08 855.394 892.02C855.894 892.94 856.564 893.65 857.404 894.15C858.244 894.63 859.174 894.87 860.194 894.87C861.214 894.87 862.144 894.63 862.984 894.15C863.844 893.65 864.524 892.94 865.024 892.02C865.524 891.08 865.774 889.99 865.774 888.75ZM880.125 888.72C880.125 887.04 880.465 885.57 881.145 884.31C881.825 883.03 882.755 882.04 883.935 881.34C885.135 880.64 886.465 880.29 887.925 880.29C889.365 880.29 890.615 880.6 891.675 881.22C892.735 881.84 893.525 882.62 894.045 883.56V880.56H896.805V897H894.045V893.94C893.505 894.9 892.695 895.7 891.615 896.34C890.555 896.96 889.315 897.27 887.895 897.27C886.435 897.27 885.115 896.91 883.935 896.19C882.755 895.47 881.825 894.46 881.145 893.16C880.465 891.86 880.125 890.38 880.125 888.72ZM894.045 888.75C894.045 887.51 893.795 886.43 893.295 885.51C892.795 884.59 892.115 883.89 891.255 883.41C890.415 882.91 889.485 882.66 888.465 882.66C887.445 882.66 886.515 882.9 885.675 883.38C884.835 883.86 884.165 884.56 883.665 885.48C883.165 886.4 882.915 887.48 882.915 888.72C882.915 889.98 883.165 891.08 883.665 892.02C884.165 892.94 884.835 893.65 885.675 894.15C886.515 894.63 887.445 894.87 888.465 894.87C889.485 894.87 890.415 894.63 891.255 894.15C892.115 893.65 892.795 892.94 893.295 892.02C893.795 891.08 894.045 889.99 894.045 888.75ZM904.149 883.23C904.629 882.29 905.309 881.56 906.189 881.04C907.089 880.52 908.179 880.26 909.459 880.26V883.08H908.739C905.679 883.08 904.149 884.74 904.149 888.06V897H901.419V880.56H904.149V883.23ZM919.78 897.27C918.24 897.27 916.84 896.92 915.58 896.22C914.34 895.52 913.36 894.53 912.64 893.25C911.94 891.95 911.59 890.45 911.59 888.75C911.59 887.07 911.95 885.59 912.67 884.31C913.41 883.01 914.41 882.02 915.67 881.34C916.93 880.64 918.34 880.29 919.9 880.29C921.46 880.29 922.87 880.64 924.13 881.34C925.39 882.02 926.38 883 927.1 884.28C927.84 885.56 928.21 887.05 928.21 888.75C928.21 890.45 927.83 891.95 927.07 893.25C926.33 894.53 925.32 895.52 924.04 896.22C922.76 896.92 921.34 897.27 919.78 897.27ZM919.78 894.87C920.76 894.87 921.68 894.64 922.54 894.18C923.4 893.72 924.09 893.03 924.61 892.11C925.15 891.19 925.42 890.07 925.42 888.75C925.42 887.43 925.16 886.31 924.64 885.39C924.12 884.47 923.44 883.79 922.6 883.35C921.76 882.89 920.85 882.66 919.87 882.66C918.87 882.66 917.95 882.89 917.11 883.35C916.29 883.79 915.63 884.47 915.13 885.39C914.63 886.31 914.38 887.43 914.38 888.75C914.38 890.09 914.62 891.22 915.1 892.14C915.6 893.06 916.26 893.75 917.08 894.21C917.9 894.65 918.8 894.87 919.78 894.87ZM946.38 880.56V897H943.65V894.57C943.13 895.41 942.4 896.07 941.46 896.55C940.54 897.01 939.52 897.24 938.4 897.24C937.12 897.24 935.97 896.98 934.95 896.46C933.93 895.92 933.12 895.12 932.52 894.06C931.94 893 931.65 891.71 931.65 890.19V880.56H934.35V889.83C934.35 891.45 934.76 892.7 935.58 893.58C936.4 894.44 937.52 894.87 938.94 894.87C940.4 894.87 941.55 894.42 942.39 893.52C943.23 892.62 943.65 891.31 943.65 889.59V880.56H946.38ZM958.999 880.26C960.999 880.26 962.619 880.87 963.859 882.09C965.099 883.29 965.719 885.03 965.719 887.31V897H963.019V887.7C963.019 886.06 962.609 884.81 961.789 883.95C960.969 883.07 959.849 882.63 958.429 882.63C956.989 882.63 955.839 883.08 954.979 883.98C954.139 884.88 953.719 886.19 953.719 887.91V897H950.989V880.56H953.719V882.9C954.259 882.06 954.989 881.41 955.909 880.95C956.849 880.49 957.879 880.26 958.999 880.26ZM969.159 888.72C969.159 887.04 969.499 885.57 970.179 884.31C970.859 883.03 971.789 882.04 972.969 881.34C974.169 880.64 975.509 880.29 976.989 880.29C978.269 880.29 979.459 880.59 980.559 881.19C981.659 881.77 982.499 882.54 983.079 883.5V874.8H985.839V897H983.079V893.91C982.539 894.89 981.739 895.7 980.679 896.34C979.619 896.96 978.379 897.27 976.959 897.27C975.499 897.27 974.169 896.91 972.969 896.19C971.789 895.47 970.859 894.46 970.179 893.16C969.499 891.86 969.159 890.38 969.159 888.72ZM983.079 888.75C983.079 887.51 982.829 886.43 982.329 885.51C981.829 884.59 981.149 883.89 980.289 883.41C979.449 882.91 978.519 882.66 977.499 882.66C976.479 882.66 975.549 882.9 974.709 883.38C973.869 883.86 973.199 884.56 972.699 885.48C972.199 886.4 971.949 887.48 971.949 888.72C971.949 889.98 972.199 891.08 972.699 892.02C973.199 892.94 973.869 893.65 974.709 894.15C975.549 894.63 976.479 894.87 977.499 894.87C978.519 894.87 979.449 894.63 980.289 894.15C981.149 893.65 981.829 892.94 982.329 892.02C982.829 891.08 983.079 889.99 983.079 888.75ZM660.121 928.59C660.661 927.65 661.461 926.87 662.521 926.25C663.601 925.61 664.851 925.29 666.271 925.29C667.731 925.29 669.051 925.64 670.231 926.34C671.431 927.04 672.371 928.03 673.051 929.31C673.731 930.57 674.071 932.04 674.071 933.72C674.071 935.38 673.731 936.86 673.051 938.16C672.371 939.46 671.431 940.47 670.231 941.19C669.051 941.91 667.731 942.27 666.271 942.27C664.871 942.27 663.631 941.96 662.551 941.34C661.491 940.7 660.681 939.91 660.121 938.97V949.8H657.391V925.56H660.121V928.59ZM671.281 933.72C671.281 932.48 671.031 931.4 670.531 930.48C670.031 929.56 669.351 928.86 668.491 928.38C667.651 927.9 666.721 927.66 665.701 927.66C664.701 927.66 663.771 927.91 662.911 928.41C662.071 928.89 661.391 929.6 660.871 930.54C660.371 931.46 660.121 932.53 660.121 933.75C660.121 934.99 660.371 936.08 660.871 937.02C661.391 937.94 662.071 938.65 662.911 939.15C663.771 939.63 664.701 939.87 665.701 939.87C666.721 939.87 667.651 939.63 668.491 939.15C669.351 938.65 670.031 937.94 670.531 937.02C671.031 936.08 671.281 934.98 671.281 933.72ZM692.664 933.15C692.664 933.67 692.634 934.22 692.574 934.8H679.434C679.534 936.42 680.084 937.69 681.084 938.61C682.104 939.51 683.334 939.96 684.774 939.96C685.954 939.96 686.934 939.69 687.714 939.15C688.514 938.59 689.074 937.85 689.394 936.93H692.334C691.894 938.51 691.014 939.8 689.694 940.8C688.374 941.78 686.734 942.27 684.774 942.27C683.214 942.27 681.814 941.92 680.574 941.22C679.354 940.52 678.394 939.53 677.694 938.25C676.994 936.95 676.644 935.45 676.644 933.75C676.644 932.05 676.984 930.56 677.664 929.28C678.344 928 679.294 927.02 680.514 926.34C681.754 925.64 683.174 925.29 684.774 925.29C686.334 925.29 687.714 925.63 688.914 926.31C690.114 926.99 691.034 927.93 691.674 929.13C692.334 930.31 692.664 931.65 692.664 933.15ZM689.844 932.58C689.844 931.54 689.614 930.65 689.154 929.91C688.694 929.15 688.064 928.58 687.264 928.2C686.484 927.8 685.614 927.6 684.654 927.6C683.274 927.6 682.094 928.04 681.114 928.92C680.154 929.8 679.604 931.02 679.464 932.58H689.844ZM703.437 942.27C701.897 942.27 700.497 941.92 699.237 941.22C697.997 940.52 697.017 939.53 696.297 938.25C695.597 936.95 695.247 935.45 695.247 933.75C695.247 932.07 695.607 930.59 696.327 929.31C697.067 928.01 698.067 927.02 699.327 926.34C700.587 925.64 701.997 925.29 703.557 925.29C705.117 925.29 706.527 925.64 707.787 926.34C709.047 927.02 710.037 928 710.757 929.28C711.497 930.56 711.867 932.05 711.867 933.75C711.867 935.45 711.487 936.95 710.727 938.25C709.987 939.53 708.977 940.52 707.697 941.22C706.417 941.92 704.997 942.27 703.437 942.27ZM703.437 939.87C704.417 939.87 705.337 939.64 706.197 939.18C707.057 938.72 707.747 938.03 708.267 937.11C708.807 936.19 709.077 935.07 709.077 933.75C709.077 932.43 708.817 931.31 708.297 930.39C707.777 929.47 707.097 928.79 706.257 928.35C705.417 927.89 704.507 927.66 703.527 927.66C702.527 927.66 701.607 927.89 700.767 928.35C699.947 928.79 699.287 929.47 698.787 930.39C698.287 931.31 698.037 932.43 698.037 933.75C698.037 935.09 698.277 936.22 698.757 937.14C699.257 938.06 699.917 938.75 700.737 939.21C701.557 939.65 702.457 939.87 703.437 939.87ZM718.187 928.59C718.727 927.65 719.527 926.87 720.587 926.25C721.667 925.61 722.917 925.29 724.337 925.29C725.797 925.29 727.117 925.64 728.297 926.34C729.497 927.04 730.437 928.03 731.117 929.31C731.797 930.57 732.137 932.04 732.137 933.72C732.137 935.38 731.797 936.86 731.117 938.16C730.437 939.46 729.497 940.47 728.297 941.19C727.117 941.91 725.797 942.27 724.337 942.27C722.937 942.27 721.697 941.96 720.617 941.34C719.557 940.7 718.747 939.91 718.187 938.97V949.8H715.457V925.56H718.187V928.59ZM729.347 933.72C729.347 932.48 729.097 931.4 728.597 930.48C728.097 929.56 727.417 928.86 726.557 928.38C725.717 927.9 724.787 927.66 723.767 927.66C722.767 927.66 721.837 927.91 720.977 928.41C720.137 928.89 719.457 929.6 718.937 930.54C718.437 931.46 718.187 932.53 718.187 933.75C718.187 934.99 718.437 936.08 718.937 937.02C719.457 937.94 720.137 938.65 720.977 939.15C721.837 939.63 722.767 939.87 723.767 939.87C724.787 939.87 725.717 939.63 726.557 939.15C727.417 938.65 728.097 937.94 728.597 937.02C729.097 936.08 729.347 934.98 729.347 933.72ZM738.46 919.8V942H735.73V919.8H738.46ZM758.113 933.15C758.113 933.67 758.083 934.22 758.023 934.8H744.883C744.983 936.42 745.533 937.69 746.533 938.61C747.553 939.51 748.783 939.96 750.223 939.96C751.403 939.96 752.383 939.69 753.163 939.15C753.963 938.59 754.523 937.85 754.843 936.93H757.783C757.343 938.51 756.463 939.8 755.143 940.8C753.823 941.78 752.183 942.27 750.223 942.27C748.663 942.27 747.263 941.92 746.023 941.22C744.803 940.52 743.843 939.53 743.143 938.25C742.443 936.95 742.093 935.45 742.093 933.75C742.093 932.05 742.433 930.56 743.113 929.28C743.793 928 744.743 927.02 745.963 926.34C747.203 925.64 748.623 925.29 750.223 925.29C751.783 925.29 753.163 925.63 754.363 926.31C755.563 926.99 756.483 927.93 757.123 929.13C757.783 930.31 758.113 931.65 758.113 933.15ZM755.293 932.58C755.293 931.54 755.063 930.65 754.603 929.91C754.143 929.15 753.513 928.58 752.713 928.2C751.933 927.8 751.063 927.6 750.103 927.6C748.723 927.6 747.543 928.04 746.563 928.92C745.603 929.8 745.053 931.02 744.913 932.58H755.293ZM767.057 920.82C769.037 920.82 770.637 921.38 771.857 922.5C773.077 923.62 773.687 925.12 773.687 927C773.687 929.1 773.037 930.66 771.737 931.68C770.437 932.68 768.677 933.18 766.457 933.18L766.367 936.03H763.997L763.877 931.29H764.747C766.727 931.29 768.277 930.99 769.397 930.39C770.517 929.79 771.077 928.66 771.077 927C771.077 925.8 770.717 924.85 769.997 924.15C769.277 923.45 768.307 923.1 767.087 923.1C765.847 923.1 764.867 923.44 764.147 924.12C763.447 924.78 763.097 925.69 763.097 926.85H760.517C760.517 925.65 760.787 924.6 761.327 923.7C761.867 922.78 762.627 922.07 763.607 921.57C764.607 921.07 765.757 920.82 767.057 920.82ZM765.167 942.18C764.647 942.18 764.207 942 763.847 941.64C763.487 941.28 763.307 940.84 763.307 940.32C763.307 939.8 763.487 939.36 763.847 939C764.207 938.64 764.647 938.46 765.167 938.46C765.667 938.46 766.087 938.64 766.427 939C766.787 939.36 766.967 939.8 766.967 940.32C766.967 940.84 766.787 941.28 766.427 941.64C766.087 942 765.667 942.18 765.167 942.18Z" fill="black"/>
<circle cx="772.437" cy="1047.41" r="28.9098" fill="white" stroke="#221FBC" stroke-width="3"/>
<circle cx="1021.19" cy="1047.53" r="38.0328" stroke="#221FBC" stroke-width="3"/>
<circle cx="703.668" cy="1047.63" r="25.8689" transform="rotate(180 703.668 1047.63)" stroke="#221FBC" stroke-width="3"/>
<circle cx="930.563" cy="1047.51" r="34.9918" transform="rotate(180 930.563 1047.51)" stroke="#221FBC" stroke-width="3"/>
<circle cx="641.03" cy="1047.67" r="22.8279" transform="rotate(180 641.03 1047.67)" stroke="#221FBC" stroke-width="3"/>
<circle cx="847.241" cy="1047.55" r="31.9508" transform="rotate(180 847.241 1047.55)" stroke="#221FBC" stroke-width="3"/>
<path d="M557.403 1047.23C557.403 1036.63 566.227 1027.96 577.19 1027.96C588.153 1027.96 596.977 1036.63 596.977 1047.23C596.977 1057.84 588.153 1066.5 577.19 1066.5C566.227 1066.5 557.403 1057.84 557.403 1047.23Z" stroke="#221FBC" stroke-width="3"/>
<path d="M505.102 1047.2C505.102 1038.23 512.564 1030.9 521.848 1030.9C531.131 1030.9 538.594 1038.23 538.594 1047.2C538.594 1056.17 531.131 1063.5 521.848 1063.5C512.564 1063.5 505.102 1056.17 505.102 1047.2Z" stroke="#221FBC" stroke-width="3"/>
<path d="M452.801 1047.17C452.801 1039.84 458.902 1033.83 466.506 1033.83C474.11 1033.83 480.211 1039.84 480.211 1047.17C480.211 1054.5 474.11 1060.5 466.506 1060.5C458.902 1060.5 452.801 1054.5 452.801 1047.17Z" stroke="#221FBC" stroke-width="3"/>
<path d="M400.5 1047.13C400.5 1041.44 405.24 1036.77 411.164 1036.77C417.089 1036.77 421.828 1041.44 421.828 1047.13C421.828 1052.82 417.089 1057.5 411.164 1057.5C405.24 1057.5 400.5 1052.82 400.5 1047.13Z" stroke="#221FBC" stroke-width="3"/>
<path d="M408.255 1133H405.894V1117.35L401.158 1119.09V1116.95L407.887 1114.43H408.255V1133ZM472.392 1133H460.28V1131.31L466.679 1124.2C467.627 1123.13 468.278 1122.26 468.634 1121.59C468.998 1120.91 469.18 1120.21 469.18 1119.49C469.18 1118.53 468.888 1117.74 468.304 1117.12C467.72 1116.5 466.941 1116.19 465.968 1116.19C464.8 1116.19 463.89 1116.53 463.238 1117.19C462.595 1117.85 462.273 1118.78 462.273 1119.96H459.925C459.925 1118.26 460.471 1116.89 461.562 1115.84C462.663 1114.79 464.131 1114.26 465.968 1114.26C467.686 1114.26 469.044 1114.71 470.043 1115.62C471.042 1116.52 471.541 1117.71 471.541 1119.21C471.541 1121.03 470.382 1123.2 468.062 1125.71L463.111 1131.08H472.392V1133ZM523.439 1122.62H525.204C526.313 1122.6 527.185 1122.31 527.819 1121.74C528.454 1121.17 528.771 1120.41 528.771 1119.44C528.771 1117.27 527.692 1116.19 525.534 1116.19C524.519 1116.19 523.706 1116.48 523.097 1117.07C522.496 1117.64 522.195 1118.41 522.195 1119.37H519.847C519.847 1117.9 520.38 1116.69 521.446 1115.72C522.521 1114.75 523.884 1114.26 525.534 1114.26C527.278 1114.26 528.645 1114.72 529.635 1115.65C530.625 1116.57 531.12 1117.85 531.12 1119.49C531.12 1120.3 530.858 1121.07 530.333 1121.83C529.817 1122.58 529.11 1123.14 528.213 1123.52C529.229 1123.84 530.011 1124.37 530.562 1125.12C531.12 1125.86 531.399 1126.77 531.399 1127.85C531.399 1129.5 530.858 1130.82 529.774 1131.79C528.691 1132.77 527.282 1133.25 525.547 1133.25C523.812 1133.25 522.398 1132.78 521.307 1131.84C520.223 1130.91 519.682 1129.67 519.682 1128.12H522.043C522.043 1129.1 522.36 1129.88 522.995 1130.46C523.63 1131.04 524.48 1131.34 525.547 1131.34C526.681 1131.34 527.549 1131.04 528.149 1130.45C528.75 1129.86 529.051 1129.01 529.051 1127.9C529.051 1126.82 528.721 1126 528.061 1125.42C527.4 1124.85 526.448 1124.55 525.204 1124.53H523.439V1122.62ZM583.234 1126.79H585.799V1128.71H583.234V1133H580.873V1128.71H572.456V1127.33L580.733 1114.52H583.234V1126.79ZM575.122 1126.79H580.873V1117.73L580.594 1118.24L575.122 1126.79ZM640.592 1123.73L641.531 1114.52H651.002V1116.69H643.524L642.966 1121.73C643.871 1121.19 644.9 1120.93 646.051 1120.93C647.735 1120.93 649.072 1121.49 650.062 1122.6C651.053 1123.71 651.548 1125.21 651.548 1127.11C651.548 1129.01 651.032 1130.52 649.999 1131.62C648.975 1132.71 647.54 1133.25 645.695 1133.25C644.062 1133.25 642.729 1132.8 641.696 1131.9C640.664 1130.99 640.076 1129.74 639.932 1128.14H642.153C642.297 1129.2 642.674 1130 643.283 1130.54C643.893 1131.07 644.697 1131.34 645.695 1131.34C646.787 1131.34 647.642 1130.96 648.26 1130.22C648.886 1129.47 649.199 1128.45 649.199 1127.13C649.199 1125.9 648.861 1124.91 648.184 1124.16C647.515 1123.41 646.622 1123.03 645.505 1123.03C644.481 1123.03 643.677 1123.26 643.093 1123.71L642.471 1124.21L640.592 1123.73ZM708.474 1114.5V1116.5H708.042C706.214 1116.53 704.758 1117.07 703.675 1118.12C702.591 1119.17 701.965 1120.65 701.796 1122.55C702.769 1121.43 704.098 1120.88 705.782 1120.88C707.39 1120.88 708.673 1121.44 709.629 1122.58C710.594 1123.71 711.076 1125.18 711.076 1126.97C711.076 1128.87 710.556 1130.4 709.515 1131.54C708.482 1132.68 707.094 1133.25 705.351 1133.25C703.582 1133.25 702.147 1132.58 701.047 1131.22C699.947 1129.86 699.396 1128.11 699.396 1125.97V1125.07C699.396 1121.66 700.12 1119.06 701.567 1117.27C703.023 1115.47 705.186 1114.55 708.055 1114.5H708.474ZM705.389 1122.83C704.585 1122.83 703.844 1123.07 703.167 1123.55C702.49 1124.04 702.02 1124.64 701.758 1125.37V1126.23C701.758 1127.76 702.101 1128.98 702.786 1129.92C703.472 1130.85 704.326 1131.31 705.351 1131.31C706.409 1131.31 707.238 1130.92 707.839 1130.14C708.448 1129.36 708.753 1128.35 708.753 1127.08C708.753 1125.81 708.444 1124.79 707.826 1124.01C707.217 1123.22 706.404 1122.83 705.389 1122.83ZM777.384 1115.84L769.729 1133H767.266L774.896 1116.45H764.892V1114.52H777.384V1115.84ZM855.752 1119.34C855.752 1120.26 855.507 1121.08 855.016 1121.8C854.533 1122.52 853.877 1123.08 853.048 1123.49C854.013 1123.91 854.774 1124.51 855.333 1125.31C855.9 1126.1 856.184 1127 856.184 1128.01C856.184 1129.61 855.642 1130.88 854.559 1131.83C853.484 1132.78 852.066 1133.25 850.306 1133.25C848.528 1133.25 847.102 1132.78 846.027 1131.83C844.961 1130.88 844.428 1129.6 844.428 1128.01C844.428 1127.01 844.699 1126.11 845.24 1125.31C845.79 1124.5 846.548 1123.89 847.513 1123.48C846.692 1123.07 846.044 1122.51 845.57 1121.79C845.096 1121.07 844.859 1120.25 844.859 1119.34C844.859 1117.78 845.359 1116.55 846.357 1115.63C847.356 1114.72 848.672 1114.26 850.306 1114.26C851.931 1114.26 853.243 1114.72 854.241 1115.63C855.248 1116.55 855.752 1117.78 855.752 1119.34ZM853.835 1127.96C853.835 1126.93 853.505 1126.09 852.845 1125.43C852.193 1124.78 851.338 1124.46 850.28 1124.46C849.222 1124.46 848.372 1124.78 847.729 1125.42C847.094 1126.06 846.776 1126.91 846.776 1127.96C846.776 1129.01 847.085 1129.83 847.703 1130.44C848.329 1131.04 849.197 1131.34 850.306 1131.34C851.406 1131.34 852.269 1131.04 852.896 1130.44C853.522 1129.83 853.835 1129 853.835 1127.96ZM850.306 1116.19C849.383 1116.19 848.634 1116.48 848.059 1117.05C847.492 1117.62 847.208 1118.4 847.208 1119.38C847.208 1120.32 847.487 1121.08 848.046 1121.66C848.613 1122.24 849.366 1122.53 850.306 1122.53C851.245 1122.53 851.994 1122.24 852.553 1121.66C853.12 1121.08 853.403 1120.32 853.403 1119.38C853.403 1118.44 853.111 1117.67 852.527 1117.08C851.943 1116.49 851.203 1116.19 850.306 1116.19ZM939.084 1124.88C938.593 1125.46 938.005 1125.93 937.319 1126.28C936.642 1126.64 935.897 1126.82 935.085 1126.82C934.019 1126.82 933.088 1126.56 932.292 1126.03C931.505 1125.51 930.896 1124.77 930.464 1123.82C930.032 1122.86 929.816 1121.81 929.816 1120.66C929.816 1119.42 930.049 1118.31 930.515 1117.32C930.989 1116.33 931.657 1115.57 932.521 1115.05C933.384 1114.52 934.391 1114.26 935.542 1114.26C937.37 1114.26 938.809 1114.95 939.858 1116.32C940.916 1117.68 941.445 1119.54 941.445 1121.9V1122.59C941.445 1126.19 940.734 1128.81 939.312 1130.47C937.891 1132.12 935.745 1132.97 932.876 1133.01H932.419V1131.03H932.914C934.852 1131 936.342 1130.49 937.383 1129.52C938.424 1128.54 938.991 1126.99 939.084 1124.88ZM935.466 1124.88C936.253 1124.88 936.977 1124.63 937.637 1124.15C938.305 1123.67 938.792 1123.07 939.097 1122.36V1121.42C939.097 1119.88 938.762 1118.63 938.094 1117.66C937.425 1116.7 936.579 1116.22 935.555 1116.22C934.522 1116.22 933.693 1116.61 933.066 1117.41C932.44 1118.2 932.127 1119.24 932.127 1120.53C932.127 1121.79 932.427 1122.84 933.028 1123.66C933.638 1124.47 934.45 1124.88 935.466 1124.88ZM1016.89 1133H1014.53V1117.35L1009.8 1119.09V1116.95L1016.53 1114.43H1016.89V1133ZM1035.37 1125.12C1035.37 1127.87 1034.9 1129.91 1033.96 1131.25C1033.02 1132.59 1031.55 1133.25 1029.55 1133.25C1027.58 1133.25 1026.12 1132.6 1025.17 1131.3C1024.22 1129.99 1023.73 1128.03 1023.7 1125.43V1122.3C1023.7 1119.58 1024.17 1117.56 1025.11 1116.24C1026.05 1114.92 1027.52 1114.26 1029.53 1114.26C1031.51 1114.26 1032.98 1114.9 1033.92 1116.18C1034.86 1117.45 1035.34 1119.41 1035.37 1122.07V1125.12ZM1033.02 1121.9C1033.02 1119.92 1032.74 1118.47 1032.18 1117.56C1031.62 1116.65 1030.74 1116.19 1029.53 1116.19C1028.32 1116.19 1027.45 1116.64 1026.9 1117.55C1026.35 1118.46 1026.06 1119.85 1026.05 1121.73V1125.48C1026.05 1127.48 1026.33 1128.96 1026.91 1129.92C1027.49 1130.86 1028.37 1131.34 1029.55 1131.34C1030.71 1131.34 1031.57 1130.89 1032.13 1129.99C1032.69 1129.09 1032.99 1127.68 1033.02 1125.75V1121.9Z" fill="black"/>
</svg>
