<svg width="806" height="810" viewBox="0 0 806 810" fill="none" xmlns="http://www.w3.org/2000/svg">
<path d="M652.361 243.929C619.332 195.98 572.842 158.846 518.77 137.222C464.698 115.598 405.472 110.456 348.583 122.446C291.693 134.435 239.695 163.018 199.163 204.58C158.631 246.141 131.387 298.815 120.874 355.94C110.362 413.065 117.054 472.076 140.104 525.509C163.155 578.943 201.528 624.4 250.371 656.132C299.215 687.864 356.335 704.446 414.509 703.781C472.683 703.115 529.297 685.233 577.193 652.394L548.856 611.258C509.088 638.524 462.08 653.372 413.777 653.925C365.474 654.477 318.046 640.709 277.491 614.361C236.935 588.014 205.073 550.27 185.934 505.903C166.795 461.536 161.238 412.539 169.967 365.107C178.696 317.675 201.317 273.939 234.972 239.43C268.626 204.92 311.801 181.187 359.037 171.232C406.274 161.277 455.45 165.547 500.347 183.501C545.244 201.456 583.845 232.289 611.269 272.102L652.361 243.929Z" fill="#221FBC" fill-opacity="0.58"/>
</svg>
