<svg width="385" height="65" viewBox="0 0 385 65" fill="none" xmlns="http://www.w3.org/2000/svg">
<g filter="url(#filter0_d)">
<rect x="3" y="1" width="379" height="59" rx="29" fill="#221FBC"/>
<path d="M65.92 40L62.124 33.11H61.058V40H56.612V21.748H64.074C65.5127 21.748 66.7347 21.9993 67.74 22.502C68.7627 23.0047 69.5253 23.698 70.028 24.582C70.5307 25.4487 70.782 26.4193 70.782 27.494C70.782 28.7073 70.4353 29.7907 69.742 30.744C69.066 31.6973 68.0607 32.3733 66.726 32.772L70.938 40H65.92ZM61.058 29.964H63.814C64.6287 29.964 65.2353 29.7647 65.634 29.366C66.05 28.9673 66.258 28.404 66.258 27.676C66.258 26.9827 66.05 26.4367 65.634 26.038C65.2353 25.6393 64.6287 25.44 63.814 25.44H61.058V29.964ZM87.2489 32.512C87.2489 32.928 87.2229 33.3613 87.1709 33.812H77.1089C77.1783 34.7133 77.4643 35.4067 77.9669 35.892C78.4869 36.36 79.1196 36.594 79.8649 36.594C80.9743 36.594 81.7456 36.126 82.1789 35.19H86.9109C86.6683 36.1433 86.2263 37.0013 85.5849 37.764C84.9609 38.5267 84.1723 39.1247 83.2189 39.558C82.2656 39.9913 81.1996 40.208 80.0209 40.208C78.5996 40.208 77.3343 39.9047 76.2249 39.298C75.1156 38.6913 74.2489 37.8247 73.6249 36.698C73.0009 35.5713 72.6889 34.254 72.6889 32.746C72.6889 31.238 72.9923 29.9207 73.5989 28.794C74.2229 27.6673 75.0896 26.8007 76.1989 26.194C77.3083 25.5873 78.5823 25.284 80.0209 25.284C81.4249 25.284 82.6729 25.5787 83.7649 26.168C84.8569 26.7573 85.7063 27.598 86.3129 28.69C86.9369 29.782 87.2489 31.056 87.2489 32.512ZM82.6989 31.342C82.6989 30.5793 82.4389 29.9727 81.9189 29.522C81.3989 29.0713 80.7489 28.846 79.9689 28.846C79.2236 28.846 78.5909 29.0627 78.0709 29.496C77.5683 29.9293 77.2563 30.5447 77.1349 31.342H82.6989ZM88.7104 32.72C88.7104 31.2293 88.9878 29.9207 89.5424 28.794C90.1144 27.6673 90.8858 26.8007 91.8564 26.194C92.8271 25.5873 93.9104 25.284 95.1064 25.284C96.1291 25.284 97.0218 25.492 97.7844 25.908C98.5644 26.324 99.1624 26.87 99.5784 27.546V25.492H104.024V40H99.5784V37.946C99.1451 38.622 98.5384 39.168 97.7584 39.584C96.9958 40 96.1031 40.208 95.0804 40.208C93.9018 40.208 92.8271 39.9047 91.8564 39.298C90.8858 38.674 90.1144 37.7987 89.5424 36.672C88.9878 35.528 88.7104 34.2107 88.7104 32.72ZM99.5784 32.746C99.5784 31.6367 99.2664 30.7613 98.6424 30.12C98.0358 29.4787 97.2904 29.158 96.4064 29.158C95.5224 29.158 94.7684 29.4787 94.1444 30.12C93.5378 30.744 93.2344 31.6107 93.2344 32.72C93.2344 33.8293 93.5378 34.7133 94.1444 35.372C94.7684 36.0133 95.5224 36.334 96.4064 36.334C97.2904 36.334 98.0358 36.0133 98.6424 35.372C99.2664 34.7307 99.5784 33.8553 99.5784 32.746ZM106.357 32.72C106.357 31.2293 106.634 29.9207 107.189 28.794C107.761 27.6673 108.532 26.8007 109.503 26.194C110.474 25.5873 111.557 25.284 112.753 25.284C113.706 25.284 114.573 25.4833 115.353 25.882C116.15 26.2807 116.774 26.818 117.225 27.494V20.76H121.671V40H117.225V37.92C116.809 38.6133 116.211 39.168 115.431 39.584C114.668 40 113.776 40.208 112.753 40.208C111.557 40.208 110.474 39.9047 109.503 39.298C108.532 38.674 107.761 37.7987 107.189 36.672C106.634 35.528 106.357 34.2107 106.357 32.72ZM117.225 32.746C117.225 31.6367 116.913 30.7613 116.289 30.12C115.682 29.4787 114.937 29.158 114.053 29.158C113.169 29.158 112.415 29.4787 111.791 30.12C111.184 30.744 110.881 31.6107 110.881 32.72C110.881 33.8293 111.184 34.7133 111.791 35.372C112.415 36.0133 113.169 36.334 114.053 36.334C114.937 36.334 115.682 36.0133 116.289 35.372C116.913 34.7307 117.225 33.8553 117.225 32.746ZM148.909 25.336C150.712 25.336 152.142 25.882 153.199 26.974C154.274 28.066 154.811 29.5827 154.811 31.524V40H150.391V32.122C150.391 31.186 150.14 30.4667 149.637 29.964C149.152 29.444 148.476 29.184 147.609 29.184C146.742 29.184 146.058 29.444 145.555 29.964C145.07 30.4667 144.827 31.186 144.827 32.122V40H140.407V32.122C140.407 31.186 140.156 30.4667 139.653 29.964C139.168 29.444 138.492 29.184 137.625 29.184C136.758 29.184 136.074 29.444 135.571 29.964C135.086 30.4667 134.843 31.186 134.843 32.122V40H130.397V25.492H134.843V27.312C135.294 26.7053 135.883 26.2287 136.611 25.882C137.339 25.518 138.162 25.336 139.081 25.336C140.173 25.336 141.144 25.57 141.993 26.038C142.86 26.506 143.536 27.1733 144.021 28.04C144.524 27.2427 145.208 26.5927 146.075 26.09C146.942 25.5873 147.886 25.336 148.909 25.336ZM164.525 40.208C163.103 40.208 161.821 39.9047 160.677 39.298C159.55 38.6913 158.657 37.8247 157.999 36.698C157.357 35.5713 157.037 34.254 157.037 32.746C157.037 31.2553 157.366 29.9467 158.025 28.82C158.683 27.676 159.585 26.8007 160.729 26.194C161.873 25.5873 163.155 25.284 164.577 25.284C165.998 25.284 167.281 25.5873 168.425 26.194C169.569 26.8007 170.47 27.676 171.129 28.82C171.787 29.9467 172.117 31.2553 172.117 32.746C172.117 34.2367 171.779 35.554 171.103 36.698C170.444 37.8247 169.534 38.6913 168.373 39.298C167.229 39.9047 165.946 40.208 164.525 40.208ZM164.525 36.36C165.374 36.36 166.093 36.048 166.683 35.424C167.289 34.8 167.593 33.9073 167.593 32.746C167.593 31.5847 167.298 30.692 166.709 30.068C166.137 29.444 165.426 29.132 164.577 29.132C163.71 29.132 162.991 29.444 162.419 30.068C161.847 30.6747 161.561 31.5673 161.561 32.746C161.561 33.9073 161.838 34.8 162.393 35.424C162.965 36.048 163.675 36.36 164.525 36.36ZM178.921 27.91C179.441 27.1127 180.091 26.4887 180.871 26.038C181.651 25.57 182.518 25.336 183.471 25.336V30.042H182.249C181.14 30.042 180.308 30.2847 179.753 30.77C179.199 31.238 178.921 32.07 178.921 33.266V40H174.475V25.492H178.921V27.91ZM199.272 32.512C199.272 32.928 199.246 33.3613 199.194 33.812H189.132C189.202 34.7133 189.488 35.4067 189.99 35.892C190.51 36.36 191.143 36.594 191.888 36.594C192.998 36.594 193.769 36.126 194.202 35.19H198.934C198.692 36.1433 198.25 37.0013 197.608 37.764C196.984 38.5267 196.196 39.1247 195.242 39.558C194.289 39.9913 193.223 40.208 192.044 40.208C190.623 40.208 189.358 39.9047 188.248 39.298C187.139 38.6913 186.272 37.8247 185.648 36.698C185.024 35.5713 184.712 34.254 184.712 32.746C184.712 31.238 185.016 29.9207 185.622 28.794C186.246 27.6673 187.113 26.8007 188.222 26.194C189.332 25.5873 190.606 25.284 192.044 25.284C193.448 25.284 194.696 25.5787 195.788 26.168C196.88 26.7573 197.73 27.598 198.336 28.69C198.96 29.782 199.272 31.056 199.272 32.512ZM194.722 31.342C194.722 30.5793 194.462 29.9727 193.942 29.522C193.422 29.0713 192.772 28.846 191.992 28.846C191.247 28.846 190.614 29.0627 190.094 29.496C189.592 29.9293 189.28 30.5447 189.158 31.342H194.722ZM213.732 40.208C212.31 40.208 211.028 39.9047 209.884 39.298C208.757 38.6913 207.864 37.8247 207.206 36.698C206.564 35.5713 206.244 34.254 206.244 32.746C206.244 31.2553 206.573 29.9467 207.232 28.82C207.89 27.676 208.792 26.8007 209.936 26.194C211.08 25.5873 212.362 25.284 213.784 25.284C215.205 25.284 216.488 25.5873 217.632 26.194C218.776 26.8007 219.677 27.676 220.336 28.82C220.994 29.9467 221.324 31.2553 221.324 32.746C221.324 34.2367 220.986 35.554 220.31 36.698C219.651 37.8247 218.741 38.6913 217.58 39.298C216.436 39.9047 215.153 40.208 213.732 40.208ZM213.732 36.36C214.581 36.36 215.3 36.048 215.89 35.424C216.496 34.8 216.8 33.9073 216.8 32.746C216.8 31.5847 216.505 30.692 215.916 30.068C215.344 29.444 214.633 29.132 213.784 29.132C212.917 29.132 212.198 29.444 211.626 30.068C211.054 30.6747 210.768 31.5673 210.768 32.746C210.768 33.9073 211.045 34.8 211.6 35.424C212.172 36.048 212.882 36.36 213.732 36.36ZM232.522 25.336C234.221 25.336 235.573 25.8907 236.578 27C237.601 28.092 238.112 29.6 238.112 31.524V40H233.692V32.122C233.692 31.1513 233.441 30.3973 232.938 29.86C232.436 29.3227 231.76 29.054 230.91 29.054C230.061 29.054 229.385 29.3227 228.882 29.86C228.38 30.3973 228.128 31.1513 228.128 32.122V40H223.682V25.492H228.128V27.416C228.579 26.7747 229.186 26.272 229.948 25.908C230.711 25.5267 231.569 25.336 232.522 25.336ZM262.52 21.748V40H258.074V32.486H251.158V40H246.712V21.748H251.158V28.898H258.074V21.748H262.52ZM264.845 32.72C264.845 31.2293 265.123 29.9207 265.677 28.794C266.249 27.6673 267.021 26.8007 267.991 26.194C268.962 25.5873 270.045 25.284 271.241 25.284C272.264 25.284 273.157 25.492 273.919 25.908C274.699 26.324 275.297 26.87 275.713 27.546V25.492H280.159V40H275.713V37.946C275.28 38.622 274.673 39.168 273.893 39.584C273.131 40 272.238 40.208 271.215 40.208C270.037 40.208 268.962 39.9047 267.991 39.298C267.021 38.674 266.249 37.7987 265.677 36.672C265.123 35.528 264.845 34.2107 264.845 32.72ZM275.713 32.746C275.713 31.6367 275.401 30.7613 274.777 30.12C274.171 29.4787 273.425 29.158 272.541 29.158C271.657 29.158 270.903 29.4787 270.279 30.12C269.673 30.744 269.369 31.6107 269.369 32.72C269.369 33.8293 269.673 34.7133 270.279 35.372C270.903 36.0133 271.657 36.334 272.541 36.334C273.425 36.334 274.171 36.0133 274.777 35.372C275.401 34.7307 275.713 33.8553 275.713 32.746ZM282.492 32.72C282.492 31.2293 282.769 29.9207 283.324 28.794C283.896 27.6673 284.667 26.8007 285.638 26.194C286.608 25.5873 287.692 25.284 288.888 25.284C289.841 25.284 290.708 25.4833 291.488 25.882C292.285 26.2807 292.909 26.818 293.36 27.494V20.76H297.806V40H293.36V37.92C292.944 38.6133 292.346 39.168 291.566 39.584C290.803 40 289.91 40.208 288.888 40.208C287.692 40.208 286.608 39.9047 285.638 39.298C284.667 38.674 283.896 37.7987 283.324 36.672C282.769 35.528 282.492 34.2107 282.492 32.72ZM293.36 32.746C293.36 31.6367 293.048 30.7613 292.424 30.12C291.817 29.4787 291.072 29.158 290.188 29.158C289.304 29.158 288.55 29.4787 287.926 30.12C287.319 30.744 287.016 31.6107 287.016 32.72C287.016 33.8293 287.319 34.7133 287.926 35.372C288.55 36.0133 289.304 36.334 290.188 36.334C291.072 36.334 291.817 36.0133 292.424 35.372C293.048 34.7307 293.36 33.8553 293.36 32.746ZM314.698 32.512C314.698 32.928 314.672 33.3613 314.62 33.812H304.558C304.627 34.7133 304.913 35.4067 305.416 35.892C305.936 36.36 306.569 36.594 307.314 36.594C308.423 36.594 309.195 36.126 309.628 35.19H314.36C314.117 36.1433 313.675 37.0013 313.034 37.764C312.41 38.5267 311.621 39.1247 310.668 39.558C309.715 39.9913 308.649 40.208 307.47 40.208C306.049 40.208 304.783 39.9047 303.674 39.298C302.565 38.6913 301.698 37.8247 301.074 36.698C300.45 35.5713 300.138 34.254 300.138 32.746C300.138 31.238 300.441 29.9207 301.048 28.794C301.672 27.6673 302.539 26.8007 303.648 26.194C304.757 25.5873 306.031 25.284 307.47 25.284C308.874 25.284 310.122 25.5787 311.214 26.168C312.306 26.7573 313.155 27.598 313.762 28.69C314.386 29.782 314.698 31.056 314.698 32.512ZM310.148 31.342C310.148 30.5793 309.888 29.9727 309.368 29.522C308.848 29.0713 308.198 28.846 307.418 28.846C306.673 28.846 306.04 29.0627 305.52 29.496C305.017 29.9293 304.705 30.5447 304.584 31.342H310.148ZM322.946 40.208C321.68 40.208 320.554 39.9913 319.566 39.558C318.578 39.1247 317.798 38.5353 317.226 37.79C316.654 37.0273 316.333 36.178 316.264 35.242H320.658C320.71 35.7447 320.944 36.152 321.36 36.464C321.776 36.776 322.287 36.932 322.894 36.932C323.448 36.932 323.873 36.828 324.168 36.62C324.48 36.3947 324.636 36.1087 324.636 35.762C324.636 35.346 324.419 35.0427 323.986 34.852C323.552 34.644 322.85 34.4187 321.88 34.176C320.84 33.9333 319.973 33.682 319.28 33.422C318.586 33.1447 317.988 32.72 317.486 32.148C316.983 31.5587 316.732 30.77 316.732 29.782C316.732 28.95 316.957 28.196 317.408 27.52C317.876 26.8267 318.552 26.2807 319.436 25.882C320.337 25.4833 321.403 25.284 322.634 25.284C324.454 25.284 325.884 25.7347 326.924 26.636C327.981 27.5373 328.588 28.7333 328.744 30.224H324.636C324.566 29.7213 324.341 29.3227 323.96 29.028C323.596 28.7333 323.11 28.586 322.504 28.586C321.984 28.586 321.585 28.69 321.308 28.898C321.03 29.0887 320.892 29.3573 320.892 29.704C320.892 30.12 321.108 30.432 321.542 30.64C321.992 30.848 322.686 31.056 323.622 31.264C324.696 31.5413 325.572 31.8187 326.248 32.096C326.924 32.356 327.513 32.7893 328.016 33.396C328.536 33.9853 328.804 34.7827 328.822 35.788C328.822 36.6373 328.579 37.4 328.094 38.076C327.626 38.7347 326.941 39.2547 326.04 39.636C325.156 40.0173 324.124 40.208 322.946 40.208Z" fill="white"/>
</g>
<defs>
<filter id="filter0_d" x="0" y="0" width="385" height="65" filterUnits="userSpaceOnUse" color-interpolation-filters="sRGB">
<feFlood flood-opacity="0" result="BackgroundImageFix"/>
<feColorMatrix in="SourceAlpha" type="matrix" values="0 0 0 0 0 0 0 0 0 0 0 0 0 0 0 0 0 0 127 0"/>
<feOffset dy="2"/>
<feGaussianBlur stdDeviation="1.5"/>
<feColorMatrix type="matrix" values="0 0 0 0 0 0 0 0 0 0 0 0 0 0 0 0 0 0 0.5 0"/>
<feBlend mode="normal" in2="BackgroundImageFix" result="effect1_dropShadow"/>
<feBlend mode="normal" in="SourceGraphic" in2="effect1_dropShadow" result="shape"/>
</filter>
</defs>
</svg>
